<svg xmlns="http://www.w3.org/2000/svg" width="1600" height="900" viewBox="0 0 1600 900">
<rect width="100%" height="100%" fill="#ffffff" />
<text x="800.00" y="26" text-anchor="middle" font-size="20" font-family="Segoe UI, Arial, sans-serif" fill="#111">Impulse Spectrum: sinc-ultra-apod @ 352800 Hz</text>
<line x1="90.00" y1="40.00" x2="90.00" y2="830.00" stroke="#e4e7eb" stroke-width="1" />
<text x="90.00" y="852.00" text-anchor="middle" font-size="12" fill="#495057">0</text>
<line x1="238.00" y1="40.00" x2="238.00" y2="830.00" stroke="#e4e7eb" stroke-width="1" />
<text x="238.00" y="852.00" text-anchor="middle" font-size="12" fill="#495057">17.6k</text>
<line x1="386.00" y1="40.00" x2="386.00" y2="830.00" stroke="#e4e7eb" stroke-width="1" />
<text x="386.00" y="852.00" text-anchor="middle" font-size="12" fill="#495057">35.3k</text>
<line x1="534.00" y1="40.00" x2="534.00" y2="830.00" stroke="#e4e7eb" stroke-width="1" />
<text x="534.00" y="852.00" text-anchor="middle" font-size="12" fill="#495057">52.9k</text>
<line x1="682.00" y1="40.00" x2="682.00" y2="830.00" stroke="#e4e7eb" stroke-width="1" />
<text x="682.00" y="852.00" text-anchor="middle" font-size="12" fill="#495057">70.6k</text>
<line x1="830.00" y1="40.00" x2="830.00" y2="830.00" stroke="#e4e7eb" stroke-width="1" />
<text x="830.00" y="852.00" text-anchor="middle" font-size="12" fill="#495057">88.2k</text>
<line x1="978.00" y1="40.00" x2="978.00" y2="830.00" stroke="#e4e7eb" stroke-width="1" />
<text x="978.00" y="852.00" text-anchor="middle" font-size="12" fill="#495057">105.8k</text>
<line x1="1126.00" y1="40.00" x2="1126.00" y2="830.00" stroke="#e4e7eb" stroke-width="1" />
<text x="1126.00" y="852.00" text-anchor="middle" font-size="12" fill="#495057">123.5k</text>
<line x1="1274.00" y1="40.00" x2="1274.00" y2="830.00" stroke="#e4e7eb" stroke-width="1" />
<text x="1274.00" y="852.00" text-anchor="middle" font-size="12" fill="#495057">141.1k</text>
<line x1="1422.00" y1="40.00" x2="1422.00" y2="830.00" stroke="#e4e7eb" stroke-width="1" />
<text x="1422.00" y="852.00" text-anchor="middle" font-size="12" fill="#495057">158.8k</text>
<line x1="1570.00" y1="40.00" x2="1570.00" y2="830.00" stroke="#e4e7eb" stroke-width="1" />
<text x="1570.00" y="852.00" text-anchor="middle" font-size="12" fill="#495057">176.4k</text>
<line x1="90.00" y1="40.00" x2="1570.00" y2="40.00" stroke="#f0f2f5" stroke-width="1" />
<text x="82.00" y="44.00" text-anchor="end" font-size="12" fill="#495057">24 dB</text>
<line x1="90.00" y1="117.45" x2="1570.00" y2="117.45" stroke="#f0f2f5" stroke-width="1" />
<text x="82.00" y="121.45" text-anchor="end" font-size="12" fill="#495057">4 dB</text>
<line x1="90.00" y1="194.90" x2="1570.00" y2="194.90" stroke="#f0f2f5" stroke-width="1" />
<text x="82.00" y="198.90" text-anchor="end" font-size="12" fill="#495057">-16 dB</text>
<line x1="90.00" y1="272.35" x2="1570.00" y2="272.35" stroke="#f0f2f5" stroke-width="1" />
<text x="82.00" y="276.35" text-anchor="end" font-size="12" fill="#495057">-36 dB</text>
<line x1="90.00" y1="349.80" x2="1570.00" y2="349.80" stroke="#f0f2f5" stroke-width="1" />
<text x="82.00" y="353.80" text-anchor="end" font-size="12" fill="#495057">-56 dB</text>
<line x1="90.00" y1="427.25" x2="1570.00" y2="427.25" stroke="#f0f2f5" stroke-width="1" />
<text x="82.00" y="431.25" text-anchor="end" font-size="12" fill="#495057">-76 dB</text>
<line x1="90.00" y1="504.71" x2="1570.00" y2="504.71" stroke="#f0f2f5" stroke-width="1" />
<text x="82.00" y="508.71" text-anchor="end" font-size="12" fill="#495057">-96 dB</text>
<line x1="90.00" y1="582.16" x2="1570.00" y2="582.16" stroke="#f0f2f5" stroke-width="1" />
<text x="82.00" y="586.16" text-anchor="end" font-size="12" fill="#495057">-116 dB</text>
<line x1="90.00" y1="659.61" x2="1570.00" y2="659.61" stroke="#f0f2f5" stroke-width="1" />
<text x="82.00" y="663.61" text-anchor="end" font-size="12" fill="#495057">-136 dB</text>
<line x1="90.00" y1="737.06" x2="1570.00" y2="737.06" stroke="#f0f2f5" stroke-width="1" />
<text x="82.00" y="741.06" text-anchor="end" font-size="12" fill="#495057">-156 dB</text>
<line x1="90.00" y1="814.51" x2="1570.00" y2="814.51" stroke="#f0f2f5" stroke-width="1" />
<text x="82.00" y="818.51" text-anchor="end" font-size="12" fill="#495057">-176 dB</text>
<rect x="90.00" y="40.00" width="1480.00" height="790.00" fill="none" stroke="#ced4da" stroke-width="1.2" />
<path d="M 90.00 66.92 L 90.72 66.92 L 91.45 66.92 L 91.63 66.92 L 92.35 66.92 L 92.53 66.92 L 93.26 66.92 L 93.80 66.92 L 93.98 66.92 L 94.89 66.92 L 95.43 66.92 L 95.61 66.92 L 96.33 66.92 L 96.52 66.92 L 97.24 66.92 L 97.42 66.92 L 97.96 66.92 L 98.87 66.92 L 99.05 66.92 L 99.59 66.92 L 100.32 66.92 L 100.50 66.92 L 101.22 66.92 L 101.40 66.92 L 101.94 66.92 L 102.67 66.92 L 102.85 66.92 L 103.57 66.92 L 104.30 66.92 L 104.48 66.92 L 105.20 66.92 L 105.38 66.92 L 105.93 66.92 L 106.65 66.92 L 106.83 66.92 L 107.56 66.92 L 108.10 66.92 L 108.28 66.92 L 109.18 66.92 L 109.73 66.92 L 109.91 66.92 L 110.63 66.92 L 110.81 66.92 L 111.54 66.92 L 112.08 66.92 L 112.26 66.92 L 113.17 66.92 L 113.71 66.92 L 113.89 66.92 L 114.61 66.92 L 114.79 66.92 L 115.52 66.92 L 116.06 66.92 L 116.24 66.92 L 116.97 66.92 L 117.51 66.92 L 117.87 66.92 L 118.60 66.92 L 118.78 66.92 L 119.32 66.92 L 120.04 66.92 L 120.22 66.92 L 120.95 66.92 L 121.13 66.92 L 121.67 66.92 L 122.40 66.92 L 122.76 66.92 L 123.30 66.92 L 124.03 66.92 L 124.21 66.92 L 124.75 66.92 L 125.47 66.92 L 125.65 66.92 L 126.38 66.92 L 126.92 66.92 L 127.10 66.92 L 127.83 66.92 L 128.37 66.92 L 128.55 66.92 L 129.46 66.92 L 130.00 66.92 L 130.18 66.92 L 130.90 66.92 L 131.08 66.92 L 131.63 66.92 L 132.35 66.92 L 132.53 66.92 L 133.26 66.92 L 133.80 66.92 L 133.98 66.92 L 134.70 66.92 L 135.43 66.92 L 135.61 66.92 L 136.15 66.92 L 136.88 66.92 L 137.06 66.92 L 137.78 66.92 L 138.32 66.92 L 138.51 66.92 L 139.23 66.92 L 139.77 66.92 L 139.95 66.92 L 140.68 66.92 L 141.22 66.92 L 141.40 66.92 L 142.13 66.92 L 142.85 66.92 L 143.03 66.92 L 143.57 66.92 L 144.30 66.92 L 144.48 66.92 L 145.02 66.92 L 145.75 66.92 L 145.93 66.92 L 146.47 66.92 L 147.19 66.92 L 147.37 66.92 L 147.92 66.92 L 148.64 66.92 L 148.82 66.92 L 149.37 66.92 L 150.09 66.92 L 150.27 66.92 L 150.81 66.92 L 151.54 66.92 L 152.08 66.92 L 152.26 66.92 L 152.99 66.92 L 153.71 66.92 L 153.89 66.92 L 154.43 66.92 L 154.98 66.92 L 155.52 66.92 L 155.70 66.92 L 156.43 66.92 L 157.15 66.92 L 157.33 66.92 L 157.87 66.92 L 158.60 66.92 L 159.14 66.92 L 159.32 66.92 L 159.87 66.92 L 160.59 66.92 L 161.13 66.92 L 161.31 66.92 L 161.86 66.92 L 162.58 66.92 L 162.76 66.92 L 163.31 66.92 L 164.03 66.92 L 164.57 66.92 L 164.75 66.92 L 165.30 66.92 L 166.02 66.92 L 166.56 66.92 L 166.75 66.92 L 167.29 66.92 L 167.83 66.92 L 168.38 66.92 L 168.56 66.92 L 169.28 66.92 L 169.82 66.92 L 170.37 66.92 L 170.55 66.92 L 171.09 66.92 L 171.82 66.92 L 172.36 66.92 L 172.54 66.92 L 173.08 66.92 L 173.63 66.92 L 174.35 66.92 L 174.89 66.92 L 175.07 66.92 L 175.62 66.92 L 176.16 66.92 L 176.89 66.92 L 177.43 66.92 L 177.61 66.92 L 177.97 66.92 L 178.70 66.92 L 179.24 66.92 L 179.78 66.92 L 179.96 66.92 L 180.51 66.92 L 181.05 66.92 L 181.77 66.92 L 182.32 66.92 L 182.86 66.92 L 183.04 66.92 L 183.40 66.92 L 184.13 66.92 L 184.67 66.92 L 185.22 66.92 L 185.76 66.92 L 186.30 66.92 L 186.48 66.92 L 187.03 66.92 L 187.57 66.92 L 188.11 66.92 L 188.66 66.92 L 189.20 66.92 L 189.74 66.92 L 189.92 66.92 L 190.29 66.92 L 190.83 66.92 L 191.37 66.92 L 191.92 66.92 L 192.46 66.92 L 193.18 66.92 L 193.73 66.92 L 194.09 66.92 L 194.63 66.92 L 195.18 66.92 L 195.36 66.92 L 195.72 66.92 L 196.26 66.92 L 196.81 66.92 L 197.35 66.92 L 197.89 66.92 L 198.44 66.92 L 198.98 66.92 L 199.34 66.92 L 199.89 66.92 L 200.43 66.92 L 200.97 66.92 L 201.52 66.92 L 201.88 66.92 L 202.42 66.92 L 202.97 66.92 L 203.51 66.92 L 203.87 66.92 L 204.42 66.92 L 204.96 66.92 L 205.32 66.92 L 205.87 66.92 L 206.23 66.92 L 206.77 66.92 L 207.32 66.92 L 207.68 66.92 L 208.22 66.92 L 208.58 66.92 L 209.13 66.92 L 210.03 66.92 L 210.40 66.92 L 210.94 66.92 L 211.30 66.92 L 211.85 66.92 L 212.21 66.92 L 212.75 66.92 L 213.12 66.92 L 213.66 66.92 L 214.38 66.92 L 214.75 66.92 L 215.29 66.92 L 215.65 66.92 L 216.02 66.92 L 216.92 66.92 L 217.28 66.92 L 217.65 66.92 L 218.19 66.92 L 218.92 66.92 L 219.28 66.92 L 219.64 66.92 L 220.19 66.92 L 220.55 66.92 L 221.27 66.92 L 221.64 66.92 L 222.00 66.92 L 222.72 66.92 L 223.09 66.92 L 223.45 66.92 L 224.18 66.92 L 224.54 66.92 L 225.26 66.92 L 225.63 66.92 L 225.99 66.92 L 226.71 66.92 L 227.08 66.92 L 227.44 66.92 L 228.17 66.92 L 228.71 66.92 L 229.07 66.92 L 229.44 66.92 L 230.16 66.92 L 230.71 66.92 L 231.07 66.92 L 231.43 66.92 L 231.98 66.92 L 232.34 66.92 L 233.25 66.92 L 233.61 66.92 L 234.15 66.92 L 234.70 66.92 L 235.06 66.92 L 235.61 66.92 L 236.15 66.92 L 236.70 66.92 L 237.06 66.92 L 237.24 66.92 L 237.79 66.92 L 238.33 66.92 L 238.88 66.92 L 239.42 66.92 L 240.15 66.92 L 240.33 66.92 L 240.69 66.92 L 241.42 66.92 L 242.15 66.92 L 242.33 66.92 L 243.05 66.92 L 243.24 66.92 L 243.96 66.92 L 244.15 66.92 L 244.87 66.92 L 245.24 66.92 L 245.96 66.92 L 246.15 66.92 L 246.69 66.92 L 247.42 66.92 L 247.97 66.92 L 248.15 66.92 L 248.69 66.92 L 249.24 66.92 L 249.97 66.92 L 250.51 66.92 L 250.70 66.92 L 251.06 66.92 L 251.97 66.92 L 252.52 66.92 L 252.70 66.92 L 253.43 66.92 L 253.61 66.92 L 254.16 66.92 L 254.89 66.92 L 255.44 66.92 L 255.80 66.92 L 256.35 66.92 L 256.72 66.92 L 257.08 66.92 L 257.81 66.92 L 258.36 66.92 L 258.91 66.92 L 259.09 66.92 L 259.83 66.92 L 260.01 66.92 L 260.56 66.92 L 260.93 66.92 L 261.85 66.92 L 262.03 66.92 L 262.77 66.92 L 263.14 66.92 L 263.87 66.92 L 264.06 66.92 L 264.43 66.92 L 264.98 66.92 L 265.54 66.92 L 265.91 66.92 L 266.47 66.92 L 267.04 66.92 L 267.41 66.92 L 268.18 66.92 L 268.37 66.92 L 268.95 66.92 L 269.35 66.93 L 269.97 66.93 L 270.42 70.90 L 270.81 255.46 L 271.30 509.93 L 271.83 566.63 L 272.40 618.73 L 273.18 602.61 L 273.36 599.34 L 273.89 595.07 L 274.44 601.28 L 274.81 601.01 L 275.34 604.42 L 275.88 607.78 L 276.61 613.10 L 276.79 605.46 L 277.69 609.56 L 277.87 612.08 L 278.23 609.22 L 278.77 609.06 L 279.67 611.77 L 279.85 613.87 L 280.22 607.47 L 280.94 609.68 L 281.67 615.57 L 282.02 613.46 L 282.21 615.96 L 283.11 613.53 L 283.47 613.54 L 284.01 620.19 L 284.55 617.60 L 284.92 636.71 L 285.62 623.19 L 285.63 622.57 L 286.35 621.68 L 286.72 621.04 L 287.45 626.94 L 287.81 631.85 L 288.35 625.52 L 288.89 621.73 L 289.25 624.44 L 289.80 618.94 L 290.52 626.47 L 290.71 627.55 L 291.42 626.70 L 291.77 619.56 L 292.16 620.47 L 292.69 618.92 L 293.24 622.92 L 293.77 630.74 L 294.13 631.47 L 294.67 625.82 L 295.03 634.66 L 295.56 623.54 L 296.11 628.84 L 296.99 620.56 L 297.01 617.61 L 297.56 618.64 L 298.09 625.15 L 298.67 630.08 L 299.19 637.81 L 299.91 626.81 L 299.95 639.74 L 300.62 630.50 L 301.35 632.22 L 301.88 627.91 L 302.08 633.65 L 302.78 633.73 L 302.97 636.68 L 303.52 626.61 L 304.04 629.15 L 304.59 630.31 L 304.95 629.41 L 305.66 631.42 L 306.23 624.53 L 306.58 620.18 L 307.11 619.00 L 307.65 626.13 L 308.05 637.14 L 308.82 631.86 L 309.09 627.27 L 309.64 627.40 L 310.00 638.25 L 310.36 635.57 L 310.92 640.74 L 311.43 635.29 L 312.19 629.46 L 312.53 631.05 L 312.91 634.99 L 313.44 639.42 L 313.95 639.73 L 314.32 636.72 L 315.06 637.04 L 315.76 637.62 L 315.78 633.59 L 316.69 630.35 L 317.21 640.18 L 317.58 634.08 L 317.80 639.74 L 318.66 631.24 L 319.21 637.00 L 319.22 637.04 L 320.08 630.89 L 320.65 639.33 L 321.15 617.71 L 321.19 628.73 L 321.89 635.99 L 322.45 646.22 L 323.01 626.47 L 323.56 638.67 L 323.92 637.44 L 324.46 630.67 L 324.99 633.29 L 325.51 632.60 L 325.87 630.53 L 326.45 639.17 L 326.63 640.93 L 327.34 641.01 L 328.07 642.84 L 328.27 630.61 L 329.10 627.67 L 329.11 627.14 L 330.02 638.52 L 330.22 636.12 L 330.78 638.94 L 331.27 629.65 L 331.64 630.26 L 332.55 639.23 L 332.58 634.90 L 333.47 641.16 L 334.04 635.90 L 334.04 635.87 L 334.57 629.59 L 335.51 627.66 L 335.92 628.24 L 336.03 631.10 L 336.67 642.29 L 337.39 639.90 L 337.79 630.11 L 338.02 626.57 L 338.91 621.73 L 339.26 634.51 L 339.50 634.45 L 340.35 642.26 L 340.65 630.28 L 341.03 636.32 L 341.79 629.94 L 342.36 641.41 L 342.89 650.98 L 343.17 630.11 L 343.45 630.05 L 344.27 621.63 L 344.71 631.61 L 345.31 640.76 L 345.55 641.96 L 346.17 640.44 L 346.78 652.26 L 347.20 627.35 L 347.45 639.29 L 348.12 643.38 L 348.55 651.96 L 348.99 636.33 L 349.76 635.30 L 349.98 637.94 L 350.71 635.53 L 351.12 635.95 L 351.40 635.98 L 352.26 640.66 L 352.78 632.12 L 353.30 629.92 L 353.35 623.28 L 353.90 629.26 L 354.78 634.70 L 355.08 629.50 L 355.71 637.33 L 355.89 624.98 L 356.60 638.48 L 356.84 645.89 L 357.34 642.58 L 358.24 653.33 L 358.63 638.11 L 359.15 643.99 L 359.69 651.60 L 360.22 644.54 L 360.22 644.55 L 360.93 639.06 L 361.47 645.66 L 362.04 632.14 L 362.39 638.42 L 363.15 635.64 L 363.18 643.98 L 364.17 637.68 L 364.18 636.39 L 364.92 635.73 L 365.65 645.43 L 365.65 645.48 L 366.63 631.70 L 366.64 631.91 L 367.42 633.65 L 367.70 637.15 L 368.43 643.14 L 369.00 640.47 L 369.60 642.39 L 369.61 643.27 L 370.59 630.33 L 370.60 630.18 L 371.25 636.92 L 372.03 645.17 L 372.14 637.98 L 372.70 637.91 L 373.23 632.90 L 373.60 642.27 L 374.22 646.17 L 375.03 636.39 L 375.04 637.04 L 375.65 631.59 L 376.29 641.62 L 376.74 634.13 L 377.03 645.35 L 377.81 639.78 L 378.20 633.95 L 378.84 634.83 L 379.27 628.51 L 379.96 631.72 L 379.98 632.68 L 380.83 635.47 L 381.06 632.79 L 381.54 632.33 L 382.27 629.15 L 382.88 639.28 L 382.99 646.12 L 383.72 634.50 L 384.28 626.91 L 384.79 647.47 L 385.16 627.98 L 385.77 634.02 L 386.07 642.60 L 386.47 647.99 L 387.31 627.87 L 387.84 636.99 L 388.04 624.86 L 388.41 635.67 L 389.36 649.13 L 389.49 630.40 L 390.04 631.25 L 390.83 626.53 L 390.85 628.15 L 391.55 645.69 L 391.85 645.21 L 392.73 639.28 L 393.10 626.81 L 393.72 630.26 L 393.99 641.54 L 394.38 628.70 L 395.26 643.30 L 395.59 643.16 L 396.21 627.15 L 396.70 627.16 L 397.08 637.32 L 397.34 632.42 L 398.06 633.96 L 398.52 637.38 L 399.24 635.46 L 399.60 627.38 L 400.14 629.66 L 400.66 641.92 L 401.05 637.90 L 401.33 626.52 L 402.13 625.67 L 402.50 631.04 L 402.85 636.07 L 403.22 636.50 L 403.95 633.86 L 404.68 632.74 L 405.03 629.70 L 405.41 643.43 L 405.93 627.88 L 406.45 643.13 L 406.83 635.29 L 407.38 629.87 L 407.92 631.89 L 408.62 632.37 L 408.63 633.02 L 409.19 639.34 L 409.88 638.49 L 410.44 642.38 L 410.97 635.31 L 411.18 630.92 L 411.69 639.25 L 412.58 631.89 L 412.59 631.22 L 413.15 633.54 L 413.68 627.20 L 414.07 631.02 L 414.77 641.77 L 415.52 632.67 L 415.85 627.69 L 416.24 632.83 L 416.94 636.32 L 417.50 634.06 L 417.52 636.20 L 418.39 632.30 L 418.94 639.76 L 419.11 633.59 L 419.84 627.46 L 420.19 638.42 L 420.76 633.81 L 421.28 642.40 L 421.82 632.25 L 422.01 637.35 L 422.54 635.95 L 423.28 641.93 L 423.81 641.51 L 424.35 639.72 L 424.71 644.38 L 425.26 626.82 L 425.62 631.64 L 426.35 627.56 L 426.53 637.16 L 427.08 629.60 L 427.79 622.90 L 428.16 639.85 L 428.53 623.82 L 429.23 634.72 L 429.85 642.27 L 429.97 640.41 L 430.51 631.95 L 431.03 632.21 L 431.41 622.12 L 432.13 637.61 L 432.84 635.67 L 433.17 633.58 L 433.57 621.06 L 434.31 633.52 L 434.32 634.83 L 434.84 646.42 L 435.72 626.97 L 436.27 634.25 L 436.79 638.19 L 436.82 632.98 L 437.72 649.31 L 437.88 651.10 L 438.67 637.59 L 438.96 636.37 L 439.72 620.69 L 439.75 633.41 L 440.62 632.73 L 441.14 654.40 L 441.51 634.41 L 442.06 641.38 L 442.60 629.81 L 442.97 624.90 L 443.60 645.46 L 444.13 650.70 L 444.41 638.11 L 445.13 632.13 L 445.48 646.91 L 445.85 624.14 L 446.39 632.33 L 446.92 643.27 L 447.30 621.22 L 448.00 635.77 L 448.39 630.89 L 448.76 628.37 L 449.44 637.94 L 449.63 648.36 L 450.54 637.37 L 450.91 624.19 L 451.28 623.17 L 451.65 629.23 L 452.17 639.44 L 453.08 628.87 L 453.09 630.97 L 453.62 634.97 L 454.15 624.38 L 454.87 632.65 L 455.25 632.75 L 455.64 646.53 L 456.32 638.57 L 456.69 627.04 L 457.04 635.17 L 457.77 642.62 L 458.14 637.79 L 458.85 639.38 L 459.40 644.38 L 459.93 628.16 L 460.31 630.24 L 460.65 635.88 L 461.48 643.50 L 461.77 632.23 L 462.48 630.74 L 462.48 630.80 L 463.23 633.89 L 463.73 637.29 L 464.26 647.54 L 464.64 629.58 L 465.18 624.06 L 465.72 625.11 L 466.10 628.75 L 466.81 639.61 L 466.99 643.49 L 467.54 639.93 L 468.27 627.05 L 468.79 635.54 L 469.00 638.35 L 469.51 640.59 L 470.05 639.42 L 470.40 641.16 L 470.95 639.48 L 471.52 632.55 L 471.88 635.92 L 472.59 628.19 L 473.33 632.12 L 473.84 633.15 L 474.04 625.54 L 474.78 633.09 L 475.12 631.43 L 475.82 651.93 L 476.22 642.41 L 476.76 636.13 L 477.30 626.62 L 477.30 626.64 L 478.00 634.17 L 478.40 643.78 L 479.11 651.41 L 479.77 646.25 L 479.81 629.72 L 480.54 633.25 L 480.89 649.95 L 481.61 647.03 L 481.97 640.04 L 482.71 641.13 L 483.20 644.54 L 483.43 628.18 L 483.78 635.19 L 484.59 643.44 L 484.89 633.91 L 485.60 624.78 L 485.97 634.38 L 486.68 641.65 L 486.87 630.15 L 487.32 653.34 L 487.77 637.33 L 488.32 636.33 L 488.85 644.21 L 489.21 624.24 L 489.95 630.22 L 490.33 651.95 L 491.01 640.19 L 491.38 635.09 L 492.10 621.83 L 492.12 623.33 L 492.64 629.78 L 493.55 624.53 L 494.09 634.39 L 494.45 633.87 L 495.01 625.52 L 495.34 633.68 L 495.72 623.99 L 496.46 628.63 L 496.79 638.42 L 497.18 620.79 L 497.55 624.65 L 498.26 627.89 L 498.96 636.63 L 499.37 641.80 L 499.88 634.02 L 500.08 623.20 L 500.79 622.55 L 501.13 630.65 L 501.51 631.06 L 502.29 637.97 L 502.96 628.27 L 502.99 631.33 L 503.69 628.79 L 504.21 634.89 L 504.75 642.10 L 505.10 634.81 L 505.84 639.34 L 506.21 634.63 L 506.57 638.26 L 507.28 635.48 L 507.72 649.27 L 508.02 628.39 L 508.74 631.73 L 509.11 640.69 L 509.48 621.11 L 510.37 641.23 L 510.88 640.60 L 511.20 638.55 L 511.62 630.51 L 512.36 633.56 L 512.37 635.06 L 513.08 644.99 L 513.83 636.60 L 513.85 639.14 L 514.54 635.47 L 515.26 635.62 L 515.59 641.53 L 516.29 639.67 L 516.72 639.33 L 516.95 652.76 L 517.78 641.69 L 518.11 632.85 L 518.48 636.11 L 518.86 634.94 L 519.61 628.18 L 520.28 636.04 L 520.31 630.69 L 521.04 631.43 L 521.38 632.04 L 521.76 649.28 L 522.54 642.13 L 523.19 634.74 L 523.54 629.79 L 523.92 625.04 L 524.25 633.59 L 524.85 656.29 L 525.37 633.43 L 526.06 631.53 L 526.43 641.46 L 526.85 626.03 L 527.62 634.16 L 527.86 635.46 L 528.23 631.14 L 528.75 627.00 L 529.66 629.66 L 529.69 625.41 L 530.39 641.73 L 531.14 636.14 L 531.15 636.00 L 531.85 624.53 L 532.21 623.87 L 532.98 631.16 L 533.60 636.36 L 533.99 629.48 L 534.11 635.78 L 534.74 627.36 L 535.47 624.36 L 535.83 640.45 L 536.35 642.42 L 536.91 638.93 L 537.24 629.79 L 537.62 633.22 L 538.36 622.31 L 538.70 646.94 L 539.10 637.68 L 539.78 629.88 L 540.52 632.76 L 540.53 633.27 L 541.04 631.37 L 541.59 634.18 L 542.33 631.90 L 542.69 635.77 L 543.42 617.58 L 543.78 627.70 L 544.17 619.50 L 544.50 626.82 L 545.19 644.33 L 545.58 628.25 L 546.12 624.91 L 546.66 623.71 L 547.03 620.20 L 547.77 634.65 L 548.43 638.98 L 548.82 629.77 L 549.19 622.60 L 549.74 631.10 L 549.95 630.43 L 550.66 626.51 L 551.33 631.49 L 551.89 627.28 L 551.89 627.56 L 552.60 629.06 L 553.15 634.36 L 553.53 634.75 L 554.26 632.23 L 554.60 630.05 L 554.99 626.22 L 555.72 617.93 L 556.23 638.08 L 556.45 641.04 L 557.14 632.41 L 557.68 624.69 L 558.25 627.06 L 558.60 623.56 L 559.15 642.02 L 559.34 642.91 L 560.06 630.97 L 560.77 635.66 L 560.79 637.61 L 561.52 633.08 L 562.25 639.93 L 562.27 640.73 L 562.91 635.12 L 563.64 637.28 L 564.03 626.47 L 564.39 625.80 L 565.12 632.49 L 565.27 635.87 L 565.84 627.53 L 566.55 630.98 L 566.74 643.26 L 567.27 626.64 L 567.98 646.11 L 568.69 645.07 L 569.03 630.06 L 569.24 623.02 L 569.80 621.80 L 570.17 626.19 L 571.07 632.57 L 571.62 634.47 L 572.12 636.28 L 572.31 631.26 L 573.06 627.54 L 573.40 634.37 L 573.80 636.26 L 574.45 635.01 L 575.02 619.56 L 575.21 632.79 L 575.94 625.31 L 576.27 622.24 L 576.66 627.15 L 577.40 628.82 L 578.07 632.01 L 578.12 617.32 L 578.84 633.22 L 579.21 630.67 L 579.59 635.48 L 580.32 635.75 L 580.80 628.17 L 581.37 623.46 L 581.73 615.31 L 582.08 626.64 L 582.65 635.31 L 583.18 626.97 L 583.89 630.90 L 584.27 643.50 L 584.63 624.23 L 585.18 638.54 L 585.66 635.68 L 586.05 632.51 L 586.95 624.29 L 586.97 626.06 L 587.51 628.54 L 588.23 624.56 L 588.94 629.87 L 588.98 624.95 L 589.67 621.88 L 590.42 625.07 L 590.76 623.55 L 591.11 633.48 L 591.87 638.12 L 592.38 623.81 L 592.57 622.76 L 593.28 619.66 L 593.86 626.47 L 594.03 628.57 L 594.76 624.93 L 595.07 629.52 L 595.45 623.49 L 596.20 619.43 L 596.48 634.75 L 596.94 631.86 L 597.64 633.31 L 598.14 622.13 L 598.72 625.66 L 599.07 628.78 L 599.40 628.99 L 599.99 622.56 L 600.53 627.65 L 601.26 624.01 L 601.29 629.54 L 601.99 619.81 L 602.71 627.22 L 602.90 629.68 L 603.38 629.55 L 603.92 619.24 L 604.49 619.80 L 604.87 621.32 L 605.41 631.36 L 605.78 639.37 L 606.33 625.44 L 607.03 622.87 L 607.35 629.36 L 607.79 620.84 L 608.46 625.34 L 609.18 626.50 L 609.69 625.62 L 609.71 624.43 L 610.62 618.40 L 611.15 629.84 L 611.36 623.30 L 612.09 623.14 L 612.62 625.57 L 612.80 622.73 L 613.53 626.03 L 613.88 626.02 L 614.14 635.03 L 615.01 625.68 L 615.49 621.34 L 616.04 624.03 L 616.41 627.49 L 616.76 625.43 L 617.33 637.79 L 617.88 628.90 L 618.57 622.38 L 618.58 623.59 L 619.34 619.51 L 620.06 628.47 L 620.10 626.30 L 620.73 622.49 L 621.27 620.17 L 621.84 623.87 L 622.20 627.47 L 622.91 626.47 L 623.11 626.43 L 623.66 628.10 L 624.37 618.73 L 624.93 632.03 L 625.43 625.58 L 625.65 619.15 L 626.06 632.21 L 626.59 630.95 L 627.06 620.66 L 627.63 617.47 L 627.99 622.41 L 628.72 623.26 L 629.43 626.99 L 629.45 628.18 L 630.13 620.75 L 630.90 616.57 L 630.93 621.74 L 631.67 624.23 L 632.32 621.35 L 632.83 620.52 L 633.21 623.34 L 633.77 619.67 L 634.07 625.54 L 634.49 623.45 L 635.29 630.11 L 635.56 623.05 L 635.92 621.31 L 636.67 621.47 L 637.02 625.37 L 637.46 632.73 L 638.11 632.04 L 638.62 623.34 L 639.18 619.15 L 639.53 621.60 L 639.88 623.38 L 640.44 636.99 L 641.31 625.75 L 641.70 620.18 L 642.26 625.90 L 642.45 623.95 L 642.97 627.53 L 643.54 627.87 L 644.18 620.05 L 644.40 618.57 L 644.98 625.94 L 645.31 618.50 L 645.87 619.55 L 646.25 628.53 L 646.78 622.78 L 647.50 619.83 L 648.22 620.24 L 648.24 619.69 L 648.75 627.26 L 649.21 632.26 L 650.17 640.09 L 650.35 639.15 L 650.75 627.50 L 651.55 646.92 L 652.00 648.11 L 652.58 635.65 L 652.91 655.86 L 653.44 641.55 L 654.01 636.63 L 654.56 644.82 L 654.75 649.68 L 655.59 640.89 L 655.98 643.96 L 656.54 643.44 L 657.01 641.76 L 657.32 643.42 L 657.80 643.10 L 658.34 640.79 L 659.05 633.58 L 659.26 647.41 L 659.88 641.04 L 660.47 651.48 L 660.76 651.00 L 661.33 655.52 L 661.75 626.54 L 662.32 620.30 L 662.79 639.70 L 663.11 643.17 L 663.79 645.94 L 664.24 643.69 L 664.83 641.73 L 665.02 643.52 L 665.57 634.79 L 666.45 634.58 L 666.68 644.76 L 667.14 638.08 L 667.55 645.28 L 668.47 647.25 L 668.89 637.67 L 669.01 648.10 L 669.91 642.41 L 670.00 646.41 L 670.62 636.36 L 671.36 659.09 L 671.89 648.65 L 672.08 646.74 L 672.71 640.30 L 673.14 640.42 L 673.90 644.84 L 674.24 634.22 L 674.67 645.06 L 674.95 645.70 L 675.81 637.58 L 676.38 651.92 L 676.68 639.50 L 677.27 642.66 L 677.86 657.97 L 678.24 652.58 L 678.63 655.36 L 679.20 651.08 L 679.68 651.32 L 680.03 654.66 L 680.75 660.06 L 681.12 654.64 L 681.56 650.48 L 682.18 645.82 L 682.58 636.24 L 682.97 649.77 L 683.49 656.45 L 684.27 649.39 L 684.43 644.54 L 684.90 642.44 L 685.45 639.56 L 686.22 640.92 L 686.51 650.68 L 686.81 634.86 L 687.42 639.22 L 688.24 655.92 L 688.72 646.98 L 688.83 642.79 L 689.68 647.66 L 689.80 654.46 L 690.52 641.08 L 690.76 645.00 L 691.25 637.41 L 691.72 642.63 L 692.28 646.81 L 692.82 644.71 L 693.66 644.30 L 693.75 644.55 L 694.60 640.96 L 695.12 643.59 L 695.35 632.10 L 696.05 640.71 L 696.32 642.62 L 696.91 634.35 L 697.49 637.01 L 697.83 637.62 L 698.61 635.10 L 698.62 634.80 L 699.32 646.93 L 699.82 646.39 L 700.42 634.75 L 700.72 639.99 L 701.49 645.33 L 701.87 638.46 L 702.08 643.01 L 702.72 640.62 L 703.27 630.61 L 703.59 638.43 L 704.07 651.17 L 704.64 647.94 L 705.50 644.15 L 705.61 647.04 L 706.24 639.12 L 706.61 651.50 L 707.27 649.23 L 707.67 641.00 L 708.07 648.15 L 708.71 647.25 L 709.36 643.28 L 709.64 638.67 L 710.20 632.52 L 710.96 646.89 L 711.30 642.57 L 711.95 645.83 L 711.97 643.78 L 712.74 641.29 L 713.32 650.68 L 713.61 643.28 L 714.24 646.03 L 714.55 645.05 L 715.13 640.18 L 715.73 641.68 L 715.93 640.75 L 716.75 641.30 L 717.37 649.84 L 717.81 641.75 L 717.94 652.35 L 718.55 646.29 L 719.09 637.82 L 719.40 632.73 L 720.13 642.60 L 720.60 646.59 L 721.12 649.07 L 721.78 646.71 L 722.09 640.40 L 722.50 643.77 L 723.23 639.27 L 723.59 639.66 L 724.17 646.77 L 724.66 642.21 L 725.21 624.33 L 725.44 636.48 L 726.14 640.08 L 726.37 638.99 L 727.24 646.37 L 727.26 649.62 L 727.80 645.13 L 728.63 638.10 L 729.24 644.97 L 729.40 639.74 L 730.12 638.80 L 730.48 644.45 L 731.21 635.39 L 731.23 634.14 L 731.79 637.71 L 732.70 644.11 L 733.03 642.73 L 733.68 636.08 L 733.69 636.07 L 734.45 631.74 L 734.83 631.96 L 735.17 652.15 L 735.92 640.62 L 736.50 634.23 L 736.99 640.54 L 737.21 638.89 L 737.94 638.41 L 738.47 639.65 L 738.70 640.37 L 739.35 649.03 L 739.90 635.83 L 740.60 639.06 L 740.81 638.75 L 741.35 649.10 L 741.70 632.82 L 742.57 637.21 L 742.58 638.13 L 743.16 635.63 L 744.04 628.09 L 744.06 632.09 L 744.60 643.62 L 745.43 647.98 L 746.03 639.86 L 746.05 637.97 L 746.62 644.23 L 747.50 642.60 L 747.52 644.81 L 748.09 630.36 L 748.61 636.37 L 749.49 636.13 L 749.51 633.92 L 750.39 643.23 L 750.95 643.67 L 750.98 648.11 L 751.51 642.68 L 752.39 645.19 L 752.55 653.50 L 753.28 639.08 L 753.87 638.46 L 754.13 643.70 L 754.72 640.65 L 754.93 640.70 L 755.60 635.47 L 756.05 636.17 L 756.42 648.04 L 757.14 647.38 L 757.80 630.08 L 758.08 631.66 L 758.52 636.89 L 759.07 639.23 L 759.87 639.92 L 759.91 630.94 L 760.50 642.20 L 761.35 640.56 L 761.38 632.07 L 761.95 642.30 L 762.52 645.01 L 763.30 641.48 L 763.58 643.36 L 764.28 646.71 L 764.76 639.19 L 764.86 631.19 L 765.69 639.98 L 766.29 632.69 L 766.31 629.03 L 767.17 630.45 L 767.74 642.26 L 767.93 649.26 L 768.32 628.98 L 769.20 643.14 L 769.66 646.32 L 770.10 645.19 L 770.41 649.29 L 771.19 645.67 L 771.49 643.76 L 771.86 647.22 L 772.36 641.45 L 772.96 644.60 L 773.60 646.58 L 774.10 646.39 L 774.49 647.88 L 774.86 637.48 L 775.54 656.53 L 775.98 636.29 L 776.33 642.86 L 776.99 648.27 L 777.59 653.15 L 778.08 637.59 L 778.31 648.79 L 778.70 641.47 L 779.31 648.18 L 779.91 629.82 L 780.62 651.47 L 780.65 637.18 L 781.21 640.51 L 781.95 647.32 L 782.32 653.29 L 783.06 641.93 L 783.54 638.15 L 783.85 644.57 L 784.53 630.83 L 784.57 638.32 L 785.27 647.05 L 785.64 646.32 L 786.27 644.98 L 786.71 632.34 L 787.25 652.35 L 787.89 646.04 L 788.03 649.08 L 788.80 638.81 L 789.44 642.15 L 789.79 647.34 L 790.32 644.49 L 790.87 646.11 L 791.40 647.39 L 791.63 652.05 L 792.10 645.90 L 792.90 646.19 L 793.34 640.39 L 793.53 647.93 L 794.37 640.28 L 794.63 639.91 L 795.24 639.06 L 795.77 641.47 L 796.09 643.38 L 796.66 660.33 L 797.02 638.47 L 797.63 649.94 L 798.40 642.16 L 798.40 641.97 L 799.00 662.09 L 799.57 641.38 L 800.34 633.85 L 800.38 638.82 L 801.03 646.96 L 801.41 644.17 L 801.86 655.58 L 802.49 658.48 L 803.03 640.98 L 803.78 648.83 L 803.94 647.46 L 804.77 639.02 L 804.82 653.86 L 805.36 654.04 L 806.11 633.94 L 806.80 651.69 L 807.19 639.87 L 807.59 639.23 L 807.85 657.04 L 808.76 650.80 L 809.01 640.94 L 809.72 639.59 L 809.76 646.67 L 810.62 658.12 L 811.21 643.69 L 811.24 648.40 L 811.89 648.65 L 812.63 631.97 L 813.01 650.82 L 813.41 635.35 L 813.81 658.53 L 814.57 660.31 L 815.20 653.67 L 815.33 648.19 L 815.84 640.53 L 816.67 647.45 L 816.68 647.74 L 817.34 652.28 L 818.06 643.41 L 818.42 657.15 L 818.90 657.56 L 819.32 676.72 L 819.75 656.10 L 820.38 644.47 L 821.09 653.67 L 821.27 662.19 L 821.86 656.01 L 822.27 655.58 L 823.10 659.92 L 823.46 644.98 L 823.76 661.70 L 824.39 635.50 L 824.94 656.93 L 825.39 654.37 L 825.77 666.13 L 826.18 655.95 L 826.75 643.78 L 827.43 641.18 L 827.67 656.24 L 828.44 664.56 L 828.88 649.56 L 829.23 651.26 L 829.77 654.69 L 830.02 659.94 L 830.66 655.08 L 831.49 654.73 L 831.85 651.14 L 832.40 643.80 L 832.88 641.66 L 833.08 644.08 L 833.47 648.43 L 834.33 651.59 L 834.85 651.86 L 835.07 649.79 L 835.67 642.22 L 836.12 639.40 L 836.55 642.06 L 837.24 652.80 L 837.55 661.41 L 838.31 646.31 L 838.43 646.00 L 839.01 640.85 L 839.44 647.79 L 840.30 646.65 L 840.48 631.97 L 840.97 652.98 L 841.56 644.95 L 841.93 638.65 L 842.86 651.73 L 842.87 650.90 L 843.75 650.18 L 844.11 637.36 L 844.84 651.61 L 845.04 637.72 L 845.55 647.65 L 846.26 640.67 L 846.50 649.26 L 847.09 644.58 L 847.37 645.19 L 848.12 644.20 L 848.79 654.07 L 848.79 653.46 L 849.45 650.97 L 850.02 642.39 L 850.66 638.04 L 851.01 644.32 L 851.70 647.71 L 852.15 640.68 L 852.30 649.08 L 853.15 644.63 L 853.69 649.55 L 854.22 643.35 L 854.23 642.77 L 854.97 663.97 L 855.67 656.60 L 856.05 636.22 L 856.60 653.00 L 857.00 652.05 L 857.51 635.93 L 858.17 644.52 L 858.56 638.13 L 858.81 634.16 L 859.66 630.28 L 859.67 629.07 L 860.59 647.77 L 861.09 650.41 L 861.46 641.84 L 861.69 650.52 L 862.56 641.99 L 863.11 642.00 L 863.12 641.58 L 863.61 644.35 L 864.58 635.38 L 864.60 637.39 L 865.15 646.05 L 865.80 648.58 L 866.19 645.42 L 866.86 658.27 L 867.36 646.51 L 867.97 652.83 L 868.51 646.73 L 868.71 641.91 L 869.41 647.71 L 869.94 646.95 L 870.49 650.15 L 870.86 646.43 L 871.39 643.22 L 871.51 657.27 L 872.14 637.93 L 872.99 663.80 L 873.04 639.57 L 873.97 654.85 L 874.26 654.77 L 874.84 646.35 L 875.18 638.94 L 875.92 633.71 L 876.16 638.84 L 876.51 646.85 L 877.36 636.42 L 877.75 640.74 L 878.12 633.35 L 878.79 642.90 L 879.21 632.78 L 879.63 653.37 L 880.27 638.26 L 880.63 643.44 L 880.99 647.58 L 881.89 653.42 L 881.94 633.67 L 882.82 633.18 L 882.95 646.00 L 883.71 648.24 L 883.89 643.58 L 884.83 642.97 L 885.20 637.23 L 885.84 647.76 L 885.97 645.85 L 886.58 644.40 L 887.01 638.95 L 887.50 635.08 L 887.86 645.79 L 888.42 644.76 L 888.82 651.71 L 889.51 643.01 L 890.03 656.37 L 890.40 645.12 L 891.16 638.16 L 891.30 647.41 L 891.87 641.75 L 892.75 648.32 L 892.79 639.62 L 893.54 632.88 L 893.89 639.93 L 894.33 648.55 L 895.05 640.12 L 895.43 658.93 L 896.14 647.16 L 896.50 646.65 L 896.90 655.38 L 897.49 649.91 L 897.82 654.19 L 898.68 650.46 L 899.05 644.53 L 899.29 640.90 L 899.95 645.14 L 900.17 650.07 L 900.85 641.72 L 901.42 648.45 L 901.82 643.52 L 902.26 632.62 L 902.64 654.80 L 903.40 650.06 L 903.90 650.92 L 904.38 649.12 L 905.10 635.15 L 905.11 635.21 L 905.95 641.68 L 906.27 654.35 L 906.89 647.34 L 907.16 647.08 L 907.68 641.54 L 908.38 632.02 L 908.61 633.82 L 909.48 638.94 L 909.90 636.22 L 910.54 635.32 L 910.57 626.93 L 911.50 649.67 L 912.00 651.77 L 912.23 649.23 L 912.93 640.76 L 913.49 650.34 L 913.61 644.64 L 914.41 650.60 L 914.94 660.64 L 915.13 658.35 L 915.65 645.33 L 916.07 650.87 L 916.74 642.07 L 917.12 645.94 L 917.73 655.09 L 918.19 648.17 L 918.57 654.19 L 919.38 646.30 L 919.81 640.82 L 920.01 652.49 L 920.49 649.47 L 921.36 654.40 L 921.65 642.38 L 922.17 636.89 L 922.41 645.97 L 923.06 644.69 L 923.88 647.21 L 923.98 645.76 L 924.37 653.40 L 925.05 649.07 L 925.41 637.36 L 925.98 639.89 L 926.52 649.76 L 927.06 637.04 L 927.44 637.47 L 927.95 645.73 L 928.62 649.09 L 928.90 632.88 L 929.57 643.18 L 930.13 648.28 L 930.54 655.05 L 931.10 641.84 L 931.76 643.96 L 931.78 648.05 L 932.63 647.74 L 933.21 641.89 L 933.33 646.27 L 934.11 650.92 L 934.65 638.15 L 935.17 651.66 L 935.61 650.36 L 936.00 646.30 L 936.72 645.63 L 936.73 644.76 L 937.55 632.37 L 937.74 657.31 L 938.45 656.12 L 939.00 630.21 L 939.62 657.47 L 939.98 660.98 L 940.62 639.91 L 940.74 649.64 L 941.66 655.23 L 941.71 644.86 L 942.40 648.61 L 942.77 636.24 L 943.16 642.65 L 943.69 653.10 L 944.49 643.68 L 944.68 645.21 L 945.40 658.76 L 945.66 656.38 L 946.24 646.11 L 947.03 650.23 L 947.44 646.02 L 948.08 648.45 L 948.56 640.13 L 948.58 642.27 L 949.11 653.08 L 949.66 639.78 L 950.47 645.01 L 950.59 649.61 L 951.33 638.47 L 951.81 639.80 L 952.53 646.44 L 952.54 645.14 L 953.41 644.28 L 953.91 650.92 L 954.50 647.32 L 954.69 635.93 L 955.45 652.60 L 955.61 633.60 L 956.36 637.67 L 956.56 639.79 L 957.24 640.78 L 957.79 641.75 L 958.06 645.74 L 958.94 638.36 L 958.95 638.58 L 959.50 642.68 L 960.06 633.22 L 960.47 629.60 L 961.19 643.19 L 961.61 644.68 L 962.15 632.18 L 962.90 632.57 L 962.93 630.84 L 963.59 641.34 L 964.38 636.19 L 964.40 635.00 L 964.96 634.74 L 965.48 641.56 L 966.24 633.63 L 966.45 656.86 L 967.15 636.18 L 967.61 638.03 L 967.90 637.06 L 968.74 629.95 L 969.32 634.70 L 969.33 634.72 L 970.22 636.20 L 970.58 639.92 L 971.28 630.33 L 971.64 627.32 L 971.84 632.01 L 972.74 630.77 L 973.12 634.22 L 973.32 632.74 L 974.17 630.28 L 974.53 638.91 L 975.13 628.82 L 975.60 627.86 L 975.98 637.00 L 976.35 629.43 L 977.06 627.70 L 977.43 629.21 L 978.01 633.09 L 978.49 620.33 L 978.88 633.06 L 979.25 626.03 L 979.98 628.19 L 980.34 631.69 L 980.89 618.33 L 981.62 628.79 L 982.14 641.52 L 982.33 640.65 L 982.87 628.61 L 983.59 629.01 L 983.80 624.51 L 984.52 627.24 L 984.88 634.25 L 985.26 623.59 L 985.98 631.99 L 986.49 629.12 L 986.87 623.75 L 987.57 630.17 L 987.95 627.17 L 988.34 639.58 L 988.88 632.30 L 989.38 626.04 L 989.59 634.53 L 990.30 629.91 L 991.04 623.01 L 991.55 625.58 L 991.56 625.64 L 992.47 616.38 L 992.68 636.98 L 993.38 631.46 L 993.92 629.44 L 994.34 634.88 L 994.79 623.62 L 995.01 632.13 L 995.73 634.31 L 996.11 629.68 L 996.82 627.32 L 997.19 634.89 L 997.66 625.72 L 998.24 633.45 L 998.77 628.47 L 999.12 635.13 L 999.88 631.15 L 1000.20 632.68 L 1000.93 622.95 L 1000.94 624.37 L 1001.86 617.01 L 1002.40 620.74 L 1002.60 618.10 L 1003.11 624.74 L 1003.48 633.46 L 1004.04 623.11 L 1004.75 624.84 L 1004.93 630.14 L 1005.68 631.91 L 1006.34 620.88 L 1006.71 621.19 L 1006.91 623.82 L 1007.81 625.26 L 1008.15 621.98 L 1008.38 621.01 L 1009.23 629.36 L 1009.81 624.22 L 1009.83 628.31 L 1010.82 631.23 L 1010.82 631.60 L 1011.71 646.78 L 1011.88 641.01 L 1012.60 626.70 L 1013.17 640.24 L 1013.42 644.16 L 1013.87 639.73 L 1014.68 645.55 L 1015.12 642.89 L 1015.48 638.38 L 1016.20 645.43 L 1016.59 642.41 L 1016.78 650.23 L 1017.47 656.54 L 1018.22 647.32 L 1018.38 633.59 L 1018.77 643.66 L 1019.66 638.12 L 1019.83 632.28 L 1020.58 631.12 L 1021.11 636.76 L 1021.27 635.14 L 1021.69 640.45 L 1022.37 632.95 L 1022.73 637.70 L 1023.45 633.90 L 1024.15 629.80 L 1024.16 630.02 L 1025.09 638.71 L 1025.45 623.14 L 1025.64 639.88 L 1026.33 631.71 L 1026.91 638.55 L 1027.15 638.56 L 1027.77 628.19 L 1028.17 628.77 L 1029.07 630.52 L 1029.10 635.67 L 1029.95 624.58 L 1030.32 629.66 L 1030.67 629.02 L 1031.23 632.77 L 1031.81 621.13 L 1032.12 637.46 L 1032.84 627.88 L 1033.40 625.31 L 1033.94 623.47 L 1034.29 641.60 L 1034.84 636.07 L 1035.38 633.95 L 1035.76 628.09 L 1036.46 633.85 L 1037.00 624.60 L 1037.01 624.52 L 1037.90 631.91 L 1038.26 628.57 L 1038.61 624.17 L 1039.19 623.66 L 1039.72 626.96 L 1040.08 638.14 L 1040.81 632.70 L 1041.39 628.89 L 1041.52 628.57 L 1042.10 641.25 L 1042.81 634.96 L 1042.97 623.65 L 1043.70 636.74 L 1044.28 630.28 L 1044.42 635.01 L 1045.02 632.89 L 1045.67 632.17 L 1045.90 635.84 L 1046.43 633.46 L 1047.15 634.76 L 1047.49 642.90 L 1048.36 637.61 L 1048.57 622.69 L 1049.32 625.24 L 1049.85 631.91 L 1049.85 631.79 L 1050.75 625.52 L 1051.29 624.58 L 1051.48 633.79 L 1052.21 630.05 L 1052.37 634.87 L 1053.08 628.80 L 1053.80 630.10 L 1054.18 627.31 L 1054.53 621.75 L 1054.95 623.95 L 1055.61 633.78 L 1055.95 628.92 L 1056.37 628.58 L 1057.06 621.79 L 1057.44 629.45 L 1058.14 623.82 L 1058.49 638.91 L 1058.87 615.65 L 1059.25 631.07 L 1060.13 623.09 L 1060.32 629.58 L 1060.90 630.45 L 1061.39 622.31 L 1061.70 630.47 L 1062.32 625.58 L 1063.19 633.26 L 1063.41 624.57 L 1063.89 633.05 L 1064.64 617.62 L 1064.67 621.18 L 1065.36 635.71 L 1066.10 617.48 L 1066.48 633.42 L 1066.84 630.85 L 1067.19 632.77 L 1068.10 627.08 L 1068.28 629.19 L 1068.83 631.87 L 1069.54 634.06 L 1069.72 638.88 L 1070.41 632.16 L 1070.99 627.42 L 1071.52 634.81 L 1071.72 625.49 L 1072.47 634.44 L 1072.97 633.79 L 1073.28 634.41 L 1073.86 632.04 L 1074.05 636.32 L 1074.61 634.03 L 1075.13 627.46 L 1076.03 629.77 L 1076.07 627.28 L 1076.91 620.07 L 1077.49 628.24 L 1077.67 620.39 L 1078.05 629.05 L 1078.74 627.39 L 1079.47 630.57 L 1079.84 621.51 L 1080.19 627.93 L 1080.93 624.43 L 1081.09 627.85 L 1081.96 626.63 L 1081.99 622.22 L 1082.73 634.20 L 1083.26 628.55 L 1083.44 630.28 L 1084.15 631.23 L 1084.53 622.61 L 1085.07 635.59 L 1085.60 633.48 L 1085.97 630.82 L 1086.71 632.97 L 1087.04 632.32 L 1087.77 625.33 L 1088.36 632.56 L 1088.86 628.13 L 1089.08 628.07 L 1089.60 634.57 L 1090.32 627.94 L 1090.66 625.53 L 1091.34 631.37 L 1091.39 623.97 L 1091.95 633.92 L 1092.83 633.35 L 1092.83 633.28 L 1093.44 632.87 L 1094.12 632.92 L 1094.65 638.55 L 1095.02 630.30 L 1095.59 625.27 L 1096.12 631.53 L 1096.31 636.21 L 1097.01 629.02 L 1097.74 629.96 L 1097.77 632.15 L 1098.27 632.42 L 1098.99 633.12 L 1099.72 627.99 L 1099.74 633.08 L 1100.43 627.39 L 1100.78 628.28 L 1101.54 632.23 L 1102.13 627.24 L 1102.23 637.57 L 1103.09 638.64 L 1103.32 628.25 L 1103.86 633.81 L 1104.41 633.64 L 1105.12 622.70 L 1105.33 634.81 L 1105.69 633.68 L 1106.44 630.95 L 1107.15 634.05 L 1107.16 633.69 L 1107.90 632.38 L 1108.21 643.26 L 1108.73 637.47 L 1109.33 640.24 L 1109.84 632.65 L 1110.54 642.04 L 1110.90 626.11 L 1111.28 632.50 L 1111.98 626.21 L 1112.19 634.52 L 1113.08 627.22 L 1113.08 627.23 L 1113.70 640.28 L 1114.55 635.88 L 1114.90 631.53 L 1115.13 636.03 L 1115.79 633.75 L 1116.54 654.58 L 1116.69 632.80 L 1117.25 637.56 L 1117.99 630.53 L 1118.02 633.68 L 1118.72 639.68 L 1119.25 633.28 L 1119.66 638.98 L 1120.27 629.52 L 1120.67 633.05 L 1121.38 637.31 L 1121.58 635.78 L 1122.44 632.46 L 1122.56 625.95 L 1123.02 635.57 L 1123.73 641.72 L 1124.30 637.89 L 1124.82 644.41 L 1125.27 631.44 L 1125.91 625.05 L 1125.92 625.48 L 1126.66 630.29 L 1127.20 628.17 L 1127.52 636.46 L 1128.24 630.45 L 1128.81 637.37 L 1128.97 634.69 L 1129.52 632.90 L 1130.27 628.87 L 1130.48 635.30 L 1131.24 630.43 L 1131.85 626.45 L 1132.25 620.06 L 1132.44 629.33 L 1133.13 628.96 L 1133.33 637.09 L 1133.92 629.03 L 1134.65 631.10 L 1135.11 634.34 L 1135.36 632.22 L 1135.84 628.66 L 1136.58 628.73 L 1136.79 629.39 L 1137.54 628.22 L 1138.02 630.29 L 1138.74 631.67 L 1138.93 628.63 L 1139.71 635.64 L 1139.92 635.05 L 1140.51 625.39 L 1140.90 632.53 L 1141.28 631.61 L 1141.82 628.92 L 1142.37 626.89 L 1143.21 631.31 L 1143.41 624.57 L 1143.99 629.10 L 1144.52 637.91 L 1145.08 635.43 L 1145.48 638.42 L 1145.78 635.01 L 1146.67 633.60 L 1146.69 631.90 L 1147.43 631.29 L 1148.15 628.66 L 1148.16 628.22 L 1149.14 635.67 L 1149.20 632.25 L 1150.12 634.15 L 1150.48 632.68 L 1150.66 629.87 L 1151.37 627.04 L 1151.94 631.83 L 1152.48 629.53 L 1152.79 632.15 L 1153.39 616.89 L 1153.92 635.33 L 1154.16 622.26 L 1154.95 625.51 L 1155.42 632.61 L 1155.71 632.36 L 1156.09 630.75 L 1157.05 631.54 L 1157.14 627.17 L 1157.79 633.77 L 1158.22 627.01 L 1158.98 628.68 L 1159.32 631.57 L 1159.93 625.89 L 1160.01 633.42 L 1160.61 630.71 L 1161.35 625.19 L 1161.88 631.62 L 1162.43 631.42 L 1162.93 629.40 L 1163.47 630.78 L 1163.50 624.80 L 1164.39 627.18 L 1164.77 630.41 L 1164.99 632.33 L 1165.50 630.62 L 1166.25 635.61 L 1166.53 623.77 L 1167.11 632.73 L 1167.62 633.63 L 1168.19 636.17 L 1168.71 627.30 L 1169.40 631.06 L 1169.62 625.89 L 1170.37 628.28 L 1170.54 627.95 L 1170.94 632.82 L 1171.60 627.16 L 1172.17 625.96 L 1172.36 627.05 L 1172.96 631.75 L 1173.58 626.04 L 1173.98 632.04 L 1174.44 625.71 L 1175.26 629.99 L 1175.59 635.14 L 1175.86 630.34 L 1176.52 624.60 L 1177.23 628.24 L 1177.38 636.97 L 1177.97 630.57 L 1178.47 624.01 L 1179.19 638.05 L 1179.55 629.80 L 1180.20 626.87 L 1180.65 626.65 L 1180.99 632.92 L 1181.73 628.62 L 1182.11 618.50 L 1182.44 626.90 L 1182.82 622.48 L 1183.72 629.31 L 1183.75 625.86 L 1184.49 623.94 L 1185.20 626.76 L 1185.21 626.74 L 1185.97 625.20 L 1186.64 632.72 L 1186.83 637.67 L 1187.42 632.01 L 1188.09 628.17 L 1188.62 628.07 L 1188.82 629.17 L 1189.52 631.24 L 1189.66 632.30 L 1190.26 628.88 L 1190.76 625.44 L 1191.38 633.46 L 1191.86 626.37 L 1192.42 638.29 L 1192.93 629.46 L 1193.15 623.36 L 1193.68 626.40 L 1194.40 622.04 L 1194.62 620.33 L 1195.46 632.65 L 1195.81 632.04 L 1196.57 626.57 L 1196.58 625.73 L 1197.55 629.43 L 1197.61 624.11 L 1198.39 629.14 L 1198.97 624.20 L 1199.04 630.20 L 1199.66 631.00 L 1200.39 623.75 L 1200.88 637.71 L 1201.09 638.25 L 1201.81 624.62 L 1202.38 636.90 L 1202.56 635.21 L 1203.31 624.53 L 1203.77 640.30 L 1204.03 632.62 L 1204.49 634.76 L 1205.23 632.55 L 1205.60 628.29 L 1205.96 640.18 L 1206.88 621.56 L 1207.08 630.91 L 1207.62 632.42 L 1208.32 633.62 L 1208.66 641.58 L 1209.21 625.91 L 1209.90 630.76 L 1209.93 628.16 L 1210.50 626.79 L 1211.22 630.12 L 1211.75 631.49 L 1211.96 630.43 L 1212.87 633.79 L 1212.87 633.84 L 1213.43 630.20 L 1213.88 641.16 L 1214.84 627.38 L 1214.85 627.12 L 1215.53 631.01 L 1216.31 637.11 L 1216.52 628.08 L 1217.18 633.20 L 1217.75 632.36 L 1217.88 638.59 L 1218.44 622.41 L 1219.04 629.59 L 1219.69 629.73 L 1220.04 636.94 L 1220.65 629.69 L 1220.82 633.84 L 1221.51 643.37 L 1222.10 631.21 L 1222.30 629.05 L 1222.77 633.34 L 1223.53 632.78 L 1223.95 637.14 L 1224.72 635.31 L 1224.73 635.24 L 1225.62 634.71 L 1226.09 637.79 L 1226.45 627.75 L 1227.17 622.91 L 1227.20 624.41 L 1227.87 637.10 L 1228.35 627.34 L 1228.70 640.13 L 1229.29 628.34 L 1230.03 631.96 L 1230.48 643.66 L 1230.75 623.17 L 1231.44 634.20 L 1231.64 645.79 L 1232.24 630.12 L 1232.98 628.10 L 1233.62 634.21 L 1233.67 625.07 L 1234.47 641.34 L 1235.07 634.81 L 1235.10 638.05 L 1235.73 644.98 L 1236.47 644.94 L 1237.01 631.37 L 1237.55 642.86 L 1238.01 641.02 L 1238.43 632.71 L 1238.65 638.29 L 1239.42 636.49 L 1239.91 640.41 L 1240.11 640.23 L 1240.66 638.30 L 1241.27 647.22 L 1241.59 639.76 L 1242.38 637.73 L 1242.96 638.83 L 1243.14 638.82 L 1243.88 629.43 L 1244.48 646.96 L 1244.96 644.67 L 1245.32 634.34 L 1245.54 652.92 L 1246.40 644.82 L 1246.63 636.20 L 1247.45 638.53 L 1247.45 638.34 L 1248.04 628.09 L 1248.58 640.63 L 1249.30 651.62 L 1249.73 644.02 L 1250.23 644.59 L 1250.72 639.04 L 1251.13 644.85 L 1251.47 639.09 L 1252.39 642.09 L 1252.41 639.49 L 1252.90 639.48 L 1253.81 636.09 L 1253.99 636.14 L 1254.53 634.18 L 1254.91 641.53 L 1255.47 634.82 L 1255.98 631.37 L 1256.75 636.50 L 1256.91 639.84 L 1257.60 644.26 L 1257.99 640.74 L 1258.67 637.68 L 1259.06 646.55 L 1259.57 635.83 L 1260.13 638.13 L 1260.31 641.98 L 1261.07 635.99 L 1261.58 642.56 L 1261.78 644.38 L 1262.68 640.29 L 1263.03 637.72 L 1263.43 638.09 L 1263.99 639.66 L 1264.67 629.10 L 1264.86 628.75 L 1265.56 631.68 L 1265.78 648.55 L 1266.64 635.43 L 1267.17 639.52 L 1267.37 646.68 L 1268.10 644.56 L 1268.44 631.40 L 1268.69 643.37 L 1269.55 636.49 L 1269.75 634.85 L 1270.60 637.95 L 1271.16 634.73 L 1271.17 634.09 L 1271.91 643.35 L 1272.42 635.81 L 1273.14 641.08 L 1273.15 639.20 L 1273.87 635.82 L 1274.61 627.60 L 1274.62 628.74 L 1275.19 633.17 L 1275.69 641.89 L 1276.27 631.20 L 1276.96 628.46 L 1277.13 635.40 L 1277.71 633.71 L 1278.42 629.52 L 1278.59 638.24 L 1279.18 641.77 L 1280.03 633.88 L 1280.05 636.57 L 1280.76 635.20 L 1281.31 635.45 L 1281.82 632.25 L 1282.20 634.62 L 1282.92 638.79 L 1283.27 630.40 L 1283.99 641.31 L 1284.20 629.91 L 1284.71 630.79 L 1285.44 628.31 L 1285.83 629.88 L 1286.01 640.24 L 1286.91 630.43 L 1287.11 630.05 L 1287.82 634.82 L 1288.42 643.39 L 1288.69 637.19 L 1289.07 630.76 L 1289.44 634.17 L 1290.14 632.31 L 1290.69 637.28 L 1291.41 641.61 L 1291.46 629.74 L 1291.95 638.06 L 1292.90 627.20 L 1292.90 626.98 L 1293.80 626.90 L 1294.31 625.03 L 1294.38 628.98 L 1294.87 639.29 L 1295.80 628.66 L 1296.29 643.11 L 1296.51 629.85 L 1297.09 636.71 L 1297.73 636.17 L 1298.12 633.39 L 1298.68 631.83 L 1299.19 641.27 L 1299.40 637.19 L 1299.98 635.90 L 1300.66 647.38 L 1300.87 645.61 L 1301.63 635.83 L 1302.27 650.43 L 1302.47 647.86 L 1303.03 635.10 L 1303.72 642.41 L 1304.10 642.37 L 1304.70 647.67 L 1304.95 639.63 L 1305.74 646.87 L 1305.96 635.47 L 1306.40 648.69 L 1307.00 644.31 L 1307.56 640.58 L 1307.80 635.28 L 1308.65 657.19 L 1308.95 641.14 L 1309.27 649.43 L 1309.78 643.43 L 1310.31 636.74 L 1310.94 631.77 L 1311.56 642.49 L 1311.78 634.41 L 1312.20 638.55 L 1312.89 647.67 L 1313.62 629.98 L 1313.65 636.07 L 1314.35 635.48 L 1314.71 631.71 L 1315.46 645.42 L 1315.85 646.60 L 1316.50 645.49 L 1316.91 641.24 L 1317.43 638.60 L 1317.60 641.72 L 1318.14 645.43 L 1318.92 634.00 L 1319.39 633.20 L 1319.61 632.57 L 1320.15 642.72 L 1320.86 634.42 L 1321.42 639.27 L 1321.76 631.61 L 1322.52 631.84 L 1322.54 633.13 L 1323.35 640.33 L 1323.61 642.61 L 1324.31 653.18 L 1324.83 633.78 L 1325.39 646.73 L 1325.93 636.96 L 1326.17 638.32 L 1326.98 640.58 L 1326.98 640.83 L 1327.57 640.45 L 1328.27 638.85 L 1328.47 651.86 L 1329.03 637.92 L 1329.53 644.04 L 1330.07 642.44 L 1330.65 643.70 L 1331.17 641.29 L 1331.68 649.53 L 1332.07 639.70 L 1332.43 644.74 L 1333.17 637.46 L 1333.54 657.79 L 1334.10 644.56 L 1334.86 637.68 L 1335.21 639.17 L 1335.86 646.97 L 1335.98 647.50 L 1336.39 648.81 L 1337.04 652.01 L 1337.80 631.89 L 1338.04 648.59 L 1338.73 651.00 L 1339.14 633.97 L 1339.65 641.17 L 1340.03 644.11 L 1340.42 649.37 L 1341.10 636.00 L 1341.31 640.70 L 1342.05 636.55 L 1342.73 640.43 L 1343.07 650.37 L 1343.63 656.19 L 1343.98 641.19 L 1344.54 652.84 L 1344.90 638.95 L 1345.41 634.13 L 1346.21 652.32 L 1346.35 624.90 L 1347.09 649.58 L 1347.42 628.81 L 1347.93 639.82 L 1348.54 649.22 L 1349.04 648.22 L 1349.26 632.83 L 1349.75 634.97 L 1350.33 647.57 L 1351.08 643.36 L 1351.59 629.05 L 1352.17 638.19 L 1352.18 639.38 L 1352.93 645.69 L 1353.61 632.76 L 1354.11 637.52 L 1354.28 643.47 L 1354.86 642.24 L 1355.55 649.11 L 1355.74 642.60 L 1356.48 631.28 L 1356.83 650.78 L 1357.20 634.93 L 1357.93 636.90 L 1358.11 641.57 L 1359.00 632.86 L 1359.38 642.42 L 1360.08 641.96 L 1360.58 639.56 L 1360.83 627.96 L 1361.52 643.76 L 1361.89 641.96 L 1362.07 644.58 L 1362.95 639.63 L 1363.15 632.50 L 1363.72 643.56 L 1364.41 644.00 L 1364.79 644.55 L 1365.17 635.77 L 1365.87 630.80 L 1366.43 647.52 L 1366.92 639.51 L 1367.12 637.81 L 1367.68 642.73 L 1368.05 637.16 L 1368.76 644.06 L 1369.47 643.29 L 1369.51 634.68 L 1370.22 642.88 L 1370.95 642.56 L 1370.95 642.57 L 1371.69 635.68 L 1372.42 625.39 L 1372.43 625.91 L 1373.10 641.77 L 1373.83 630.83 L 1374.36 641.63 L 1374.73 642.50 L 1375.29 642.42 L 1375.63 642.33 L 1376.36 634.93 L 1376.72 630.52 L 1376.91 643.36 L 1377.47 633.39 L 1378.34 634.62 L 1378.53 638.49 L 1378.92 643.86 L 1379.62 627.11 L 1380.00 651.42 L 1380.40 646.76 L 1381.10 631.87 L 1381.32 644.76 L 1382.13 651.30 L 1382.72 642.32 L 1383.25 641.81 L 1383.30 646.90 L 1384.00 641.03 L 1384.31 652.97 L 1385.24 639.75 L 1385.42 637.61 L 1385.91 650.98 L 1386.68 644.10 L 1386.90 634.67 L 1387.57 641.22 L 1387.92 643.39 L 1388.30 628.63 L 1389.01 632.09 L 1389.59 646.07 L 1389.79 631.50 L 1390.56 644.40 L 1390.81 649.32 L 1391.58 651.33 L 1391.89 635.04 L 1392.47 635.33 L 1392.69 636.47 L 1393.67 643.23 L 1394.07 640.36 L 1394.44 643.90 L 1394.78 654.04 L 1395.57 638.59 L 1395.69 636.71 L 1396.60 643.16 L 1396.95 630.31 L 1397.43 635.63 L 1397.85 635.94 L 1398.45 634.65 L 1398.69 648.67 L 1399.49 634.74 L 1399.89 638.61 L 1400.24 642.89 L 1400.63 643.00 L 1401.32 647.24 L 1401.72 646.88 L 1402.52 645.21 L 1402.71 637.41 L 1403.45 643.60 L 1404.02 643.46 L 1404.23 629.47 L 1404.62 641.59 L 1405.21 630.47 L 1405.65 628.56 L 1406.34 634.94 L 1406.88 636.66 L 1407.09 626.63 L 1407.82 645.09 L 1408.37 635.85 L 1408.80 646.47 L 1409.43 637.80 L 1409.77 640.53 L 1410.02 641.24 L 1410.67 646.39 L 1411.05 638.91 L 1411.46 641.55 L 1412.12 629.61 L 1412.68 640.86 L 1413.17 640.62 L 1413.43 644.68 L 1414.31 639.40 L 1414.61 650.71 L 1415.04 632.44 L 1415.80 622.66 L 1416.14 634.79 L 1416.43 638.39 L 1417.22 633.68 L 1417.39 641.46 L 1417.95 639.47 L 1418.43 626.82 L 1418.87 645.56 L 1419.71 635.95 L 1420.06 631.44 L 1420.38 641.90 L 1421.34 640.74 L 1421.83 628.66 L 1421.84 628.49 L 1422.64 647.14 L 1423.12 637.17 L 1423.66 639.31 L 1424.00 641.90 L 1424.68 636.06 L 1424.93 645.18 L 1425.66 633.99 L 1426.26 644.89 L 1426.38 642.19 L 1426.93 646.00 L 1427.35 633.60 L 1428.14 636.62 L 1428.36 632.42 L 1428.75 643.96 L 1429.49 642.23 L 1429.76 648.86 L 1430.34 647.83 L 1431.22 642.99 L 1431.63 631.74 L 1431.99 640.19 L 1432.55 652.32 L 1433.19 642.31 L 1433.19 642.59 L 1433.82 639.09 L 1434.54 646.87 L 1434.79 642.50 L 1435.24 635.32 L 1436.01 633.93 L 1436.29 631.93 L 1436.72 640.68 L 1437.38 635.61 L 1437.89 645.44 L 1438.62 645.13 L 1438.97 635.69 L 1439.60 636.14 L 1439.90 634.80 L 1440.45 634.09 L 1441.04 645.90 L 1441.59 635.77 L 1441.60 635.51 L 1442.09 642.13 L 1442.84 636.83 L 1443.21 629.95 L 1443.89 641.26 L 1444.09 638.45 L 1444.67 635.61 L 1445.39 634.63 L 1445.55 644.15 L 1446.11 627.39 L 1446.75 635.81 L 1447.12 649.39 L 1447.57 638.18 L 1448.04 653.04 L 1448.96 626.55 L 1449.33 631.63 L 1449.88 630.10 L 1450.27 627.37 L 1450.58 632.96 L 1451.47 632.62 L 1451.49 630.67 L 1452.38 642.57 L 1452.60 640.65 L 1453.11 634.04 L 1453.65 630.23 L 1454.36 634.46 L 1454.57 630.83 L 1455.24 630.40 L 1455.67 626.36 L 1456.38 643.32 L 1456.91 634.76 L 1457.12 630.07 L 1457.87 629.45 L 1457.90 631.09 L 1458.39 637.00 L 1459.37 634.80 L 1459.38 634.84 L 1459.98 636.82 L 1460.53 637.91 L 1461.26 641.50 L 1461.81 639.14 L 1462.03 625.06 L 1462.38 629.89 L 1463.19 638.86 L 1463.77 634.58 L 1464.18 641.17 L 1464.69 625.88 L 1464.92 635.67 L 1465.60 641.24 L 1465.97 635.99 L 1466.79 634.26 L 1466.83 629.16 L 1467.43 643.05 L 1467.81 644.25 L 1468.68 628.96 L 1469.25 627.60 L 1469.26 627.71 L 1470.16 636.85 L 1470.70 643.64 L 1470.91 630.06 L 1471.48 643.28 L 1471.90 642.21 L 1472.47 641.84 L 1473.20 639.89 L 1473.60 637.33 L 1474.02 644.47 L 1474.37 647.60 L 1475.04 651.70 L 1475.60 643.75 L 1476.02 633.67 L 1476.49 644.20 L 1476.75 632.16 L 1477.31 644.55 L 1477.90 636.18 L 1478.24 636.07 L 1479.03 645.37 L 1479.43 641.32 L 1480.04 645.93 L 1480.41 633.72 L 1480.79 640.57 L 1481.47 640.93 L 1482.03 636.23 L 1482.53 640.52 L 1482.74 634.15 L 1483.12 655.54 L 1484.08 650.34 L 1484.10 647.43 L 1484.83 640.95 L 1485.21 643.59 L 1485.75 646.15 L 1486.13 662.19 L 1486.62 652.86 L 1487.27 653.08 L 1488.01 635.93 L 1488.03 638.83 L 1489.02 643.36 L 1489.42 637.90 L 1489.75 641.65 L 1490.10 640.01 L 1490.70 640.04 L 1491.22 641.50 L 1491.80 633.46 L 1492.08 646.64 L 1492.63 640.80 L 1492.99 645.43 L 1493.96 647.01 L 1493.98 644.69 L 1494.82 648.93 L 1495.21 642.43 L 1495.56 643.15 L 1496.40 649.84 L 1496.43 659.41 L 1497.31 634.70 L 1497.42 639.68 L 1498.27 647.91 L 1498.85 643.99 L 1499.35 640.92 L 1499.88 643.77 L 1499.89 643.33 L 1500.48 644.34 L 1501.22 647.39 L 1501.70 650.06 L 1502.29 644.11 L 1502.40 643.73 L 1503.17 651.13 L 1503.50 653.15 L 1504.30 650.14 L 1504.41 654.52 L 1505.17 645.93 L 1505.69 642.50 L 1506.02 650.04 L 1506.46 665.10 L 1507.00 664.11 L 1507.52 649.60 L 1508.28 651.99 L 1508.34 639.32 L 1508.91 645.03 L 1509.70 646.38 L 1509.85 641.10 L 1510.27 647.01 L 1511.15 644.85 L 1511.74 649.99 L 1512.23 648.17 L 1512.68 641.17 L 1512.73 648.64 L 1513.23 653.73 L 1514.13 636.10 L 1514.35 632.71 L 1514.92 640.24 L 1515.65 640.72 L 1515.69 647.78 L 1516.22 642.42 L 1517.05 638.00 L 1517.50 646.22 L 1517.81 646.01 L 1518.52 646.68 L 1518.89 657.83 L 1519.64 637.77 L 1519.65 638.25 L 1520.37 645.66 L 1520.71 636.86 L 1521.42 658.08 L 1522.02 647.07 L 1522.56 652.70 L 1523.02 647.88 L 1523.22 645.25 L 1523.75 649.81 L 1524.37 649.68 L 1524.94 649.20 L 1525.41 640.08 L 1525.69 661.24 L 1526.51 635.92 L 1526.64 643.56 L 1527.21 646.32 L 1527.93 644.68 L 1528.38 640.62 L 1528.96 643.14 L 1529.42 650.79 L 1529.64 651.09 L 1530.41 649.05 L 1530.85 651.73 L 1531.21 638.67 L 1531.83 652.56 L 1532.29 651.40 L 1532.69 643.90 L 1533.45 647.63 L 1533.48 652.05 L 1534.14 642.53 L 1534.58 644.30 L 1535.32 639.64 L 1535.68 645.23 L 1536.44 649.44 L 1536.58 630.28 L 1537.07 639.30 L 1537.92 634.02 L 1537.92 634.03 L 1538.47 639.59 L 1539.13 644.26 L 1539.41 656.72 L 1540.39 640.28 L 1540.40 638.96 L 1540.97 659.50 L 1541.83 644.06 L 1542.10 657.44 L 1542.83 643.57 L 1543.09 640.66 L 1543.85 637.26 L 1543.87 633.76 L 1544.45 649.72 L 1545.13 642.22 L 1545.70 642.92 L 1546.00 642.24 L 1546.74 656.57 L 1547.27 657.48 L 1547.47 648.25 L 1548.16 633.02 L 1548.64 649.56 L 1549.13 649.54 L 1549.62 640.60 L 1549.79 654.49 L 1550.69 649.60 L 1551.21 652.24 L 1551.42 645.34 L 1551.95 641.33 L 1552.48 661.18 L 1552.97 653.74 L 1553.58 652.31 L 1553.98 665.34 L 1554.52 646.91 L 1554.88 647.57 L 1555.40 640.87 L 1555.82 641.15 L 1556.49 640.68 L 1557.16 647.96 L 1557.40 641.37 L 1557.75 649.94 L 1558.45 640.67 L 1558.93 642.96 L 1559.17 648.64 L 1560.12 654.62 L 1560.15 664.72 L 1561.06 641.84 L 1561.19 640.52 L 1561.74 646.72 L 1562.62 639.92 L 1562.64 638.31 L 1563.49 645.70 L 1563.88 664.21 L 1564.38 655.03 L 1564.96 639.06 L 1565.14 657.54 L 1565.94 653.87 L 1566.12 648.95 L 1566.62 659.29 L 1567.39 660.02 L 1567.72 666.73 L 1568.52 651.63 L 1568.55 656.08 L 1569.28 644.52 L 1570.00 646.19" fill="none" stroke="#0d6efd" stroke-width="1.8" stroke-linejoin="round" stroke-linecap="round" />
<text x="830.00" y="880.00" text-anchor="middle" font-size="13" fill="#212529">Frequency (Hz)</text>
<text transform="translate(24.00,435.00) rotate(-90)" text-anchor="middle" font-size="13" fill="#212529">Magnitude (dBFS)</text>
</svg>
