<svg xmlns="http://www.w3.org/2000/svg" width="1600" height="900" viewBox="0 0 1600 900">
<rect width="100%" height="100%" fill="#ffffff" />
<text x="800.00" y="26" text-anchor="middle" font-size="20" font-family="Segoe UI, Arial, sans-serif" fill="#111">Impulse Spectrum: sinc-ultra @ 352800 Hz</text>
<line x1="90.00" y1="40.00" x2="90.00" y2="830.00" stroke="#e4e7eb" stroke-width="1" />
<text x="90.00" y="852.00" text-anchor="middle" font-size="12" fill="#495057">0</text>
<line x1="238.00" y1="40.00" x2="238.00" y2="830.00" stroke="#e4e7eb" stroke-width="1" />
<text x="238.00" y="852.00" text-anchor="middle" font-size="12" fill="#495057">17.6k</text>
<line x1="386.00" y1="40.00" x2="386.00" y2="830.00" stroke="#e4e7eb" stroke-width="1" />
<text x="386.00" y="852.00" text-anchor="middle" font-size="12" fill="#495057">35.3k</text>
<line x1="534.00" y1="40.00" x2="534.00" y2="830.00" stroke="#e4e7eb" stroke-width="1" />
<text x="534.00" y="852.00" text-anchor="middle" font-size="12" fill="#495057">52.9k</text>
<line x1="682.00" y1="40.00" x2="682.00" y2="830.00" stroke="#e4e7eb" stroke-width="1" />
<text x="682.00" y="852.00" text-anchor="middle" font-size="12" fill="#495057">70.6k</text>
<line x1="830.00" y1="40.00" x2="830.00" y2="830.00" stroke="#e4e7eb" stroke-width="1" />
<text x="830.00" y="852.00" text-anchor="middle" font-size="12" fill="#495057">88.2k</text>
<line x1="978.00" y1="40.00" x2="978.00" y2="830.00" stroke="#e4e7eb" stroke-width="1" />
<text x="978.00" y="852.00" text-anchor="middle" font-size="12" fill="#495057">105.8k</text>
<line x1="1126.00" y1="40.00" x2="1126.00" y2="830.00" stroke="#e4e7eb" stroke-width="1" />
<text x="1126.00" y="852.00" text-anchor="middle" font-size="12" fill="#495057">123.5k</text>
<line x1="1274.00" y1="40.00" x2="1274.00" y2="830.00" stroke="#e4e7eb" stroke-width="1" />
<text x="1274.00" y="852.00" text-anchor="middle" font-size="12" fill="#495057">141.1k</text>
<line x1="1422.00" y1="40.00" x2="1422.00" y2="830.00" stroke="#e4e7eb" stroke-width="1" />
<text x="1422.00" y="852.00" text-anchor="middle" font-size="12" fill="#495057">158.8k</text>
<line x1="1570.00" y1="40.00" x2="1570.00" y2="830.00" stroke="#e4e7eb" stroke-width="1" />
<text x="1570.00" y="852.00" text-anchor="middle" font-size="12" fill="#495057">176.4k</text>
<line x1="90.00" y1="40.00" x2="1570.00" y2="40.00" stroke="#f0f2f5" stroke-width="1" />
<text x="82.00" y="44.00" text-anchor="end" font-size="12" fill="#495057">24 dB</text>
<line x1="90.00" y1="117.45" x2="1570.00" y2="117.45" stroke="#f0f2f5" stroke-width="1" />
<text x="82.00" y="121.45" text-anchor="end" font-size="12" fill="#495057">4 dB</text>
<line x1="90.00" y1="194.90" x2="1570.00" y2="194.90" stroke="#f0f2f5" stroke-width="1" />
<text x="82.00" y="198.90" text-anchor="end" font-size="12" fill="#495057">-16 dB</text>
<line x1="90.00" y1="272.35" x2="1570.00" y2="272.35" stroke="#f0f2f5" stroke-width="1" />
<text x="82.00" y="276.35" text-anchor="end" font-size="12" fill="#495057">-36 dB</text>
<line x1="90.00" y1="349.80" x2="1570.00" y2="349.80" stroke="#f0f2f5" stroke-width="1" />
<text x="82.00" y="353.80" text-anchor="end" font-size="12" fill="#495057">-56 dB</text>
<line x1="90.00" y1="427.25" x2="1570.00" y2="427.25" stroke="#f0f2f5" stroke-width="1" />
<text x="82.00" y="431.25" text-anchor="end" font-size="12" fill="#495057">-76 dB</text>
<line x1="90.00" y1="504.71" x2="1570.00" y2="504.71" stroke="#f0f2f5" stroke-width="1" />
<text x="82.00" y="508.71" text-anchor="end" font-size="12" fill="#495057">-96 dB</text>
<line x1="90.00" y1="582.16" x2="1570.00" y2="582.16" stroke="#f0f2f5" stroke-width="1" />
<text x="82.00" y="586.16" text-anchor="end" font-size="12" fill="#495057">-116 dB</text>
<line x1="90.00" y1="659.61" x2="1570.00" y2="659.61" stroke="#f0f2f5" stroke-width="1" />
<text x="82.00" y="663.61" text-anchor="end" font-size="12" fill="#495057">-136 dB</text>
<line x1="90.00" y1="737.06" x2="1570.00" y2="737.06" stroke="#f0f2f5" stroke-width="1" />
<text x="82.00" y="741.06" text-anchor="end" font-size="12" fill="#495057">-156 dB</text>
<line x1="90.00" y1="814.51" x2="1570.00" y2="814.51" stroke="#f0f2f5" stroke-width="1" />
<text x="82.00" y="818.51" text-anchor="end" font-size="12" fill="#495057">-176 dB</text>
<rect x="90.00" y="40.00" width="1480.00" height="790.00" fill="none" stroke="#ced4da" stroke-width="1.2" />
<path d="M 90.00 66.92 L 90.73 66.92 L 91.09 66.92 L 91.80 66.92 L 91.98 66.92 L 92.88 66.92 L 93.42 66.92 L 93.63 66.92 L 94.01 66.92 L 94.87 66.92 L 95.27 66.92 L 95.69 66.92 L 96.28 66.92 L 96.47 66.92 L 97.08 66.92 L 97.90 66.92 L 97.93 66.92 L 98.66 66.92 L 99.38 66.92 L 99.41 66.92 L 100.08 66.92 L 100.65 66.92 L 100.87 66.92 L 101.44 66.92 L 102.27 66.92 L 102.67 66.92 L 103.23 66.92 L 103.35 66.92 L 104.08 66.92 L 104.44 66.92 L 105.17 66.92 L 105.59 66.92 L 106.27 66.92 L 106.30 66.92 L 106.84 66.92 L 107.63 66.92 L 108.23 66.92 L 108.42 66.92 L 109.17 66.92 L 109.36 66.92 L 110.25 66.92 L 110.25 66.92 L 111.12 66.92 L 111.33 66.92 L 111.74 66.92 L 112.23 66.92 L 113.14 66.92 L 113.54 66.92 L 114.04 66.92 L 114.70 66.92 L 114.91 66.92 L 115.29 66.92 L 116.01 66.92 L 116.35 66.92 L 116.74 66.92 L 117.64 66.92 L 118.00 66.92 L 118.42 66.92 L 118.88 66.92 L 119.41 66.92 L 120.00 66.92 L 120.37 66.92 L 121.06 66.92 L 121.45 66.92 L 121.81 66.92 L 122.19 66.92 L 122.90 66.92 L 123.10 66.92 L 123.59 66.92 L 124.56 66.92 L 125.02 66.92 L 125.07 66.92 L 125.80 66.92 L 126.49 66.92 L 126.66 66.92 L 127.24 66.92 L 127.60 66.92 L 128.30 66.92 L 128.80 66.92 L 129.52 66.92 L 129.56 66.92 L 130.49 66.92 L 130.51 66.92 L 131.17 66.92 L 131.52 66.92 L 132.25 66.92 L 132.63 66.92 L 133.36 66.92 L 133.72 66.92 L 134.44 66.92 L 134.46 66.92 L 135.15 66.92 L 135.54 66.92 L 136.39 66.92 L 136.59 66.92 L 137.34 66.92 L 137.88 66.92 L 138.23 66.92 L 138.45 66.92 L 139.13 66.92 L 139.86 66.92 L 140.25 66.92 L 140.40 66.92 L 141.10 66.92 L 141.73 66.92 L 142.36 66.92 L 142.55 66.92 L 142.94 66.92 L 143.69 66.92 L 144.19 66.92 L 144.59 66.92 L 145.25 66.92 L 145.64 66.92 L 145.99 66.92 L 146.69 66.92 L 146.90 66.92 L 147.71 66.92 L 147.80 66.92 L 148.52 66.92 L 148.92 66.92 L 149.60 66.92 L 149.99 66.92 L 150.32 66.92 L 151.03 66.92 L 151.43 66.92 L 151.83 66.92 L 152.69 66.92 L 152.89 66.92 L 153.26 66.92 L 153.89 66.92 L 154.66 66.92 L 155.21 66.92 L 155.21 66.92 L 156.15 66.92 L 156.50 66.92 L 157.18 66.92 L 157.58 66.92 L 157.77 66.92 L 158.46 66.92 L 159.01 66.92 L 159.37 66.92 L 160.08 66.92 L 160.49 66.92 L 161.14 66.92 L 161.17 66.92 L 161.93 66.92 L 162.25 66.92 L 162.62 66.92 L 163.15 66.92 L 164.08 66.92 L 164.25 66.92 L 164.88 66.92 L 165.46 66.92 L 165.67 66.92 L 166.23 66.92 L 166.93 66.92 L 167.34 66.92 L 168.05 66.92 L 168.41 66.92 L 168.75 66.92 L 169.13 66.92 L 169.85 66.92 L 170.03 66.92 L 171.02 66.92 L 171.27 66.92 L 171.65 66.92 L 172.05 66.92 L 172.93 66.92 L 173.49 66.92 L 173.50 66.92 L 174.17 66.92 L 174.57 66.92 L 175.07 66.92 L 175.81 66.92 L 176.02 66.92 L 176.78 66.92 L 177.04 66.92 L 177.77 66.92 L 177.99 66.92 L 178.49 66.92 L 179.30 66.92 L 179.63 66.92 L 179.99 66.92 L 180.86 66.92 L 181.39 66.92 L 181.40 66.92 L 182.17 66.92 L 182.84 66.92 L 183.23 66.92 L 183.60 66.92 L 184.31 66.92 L 184.50 66.92 L 185.34 66.92 L 185.37 66.92 L 186.13 66.92 L 186.53 66.92 L 187.32 66.92 L 187.36 66.92 L 187.99 66.92 L 188.60 66.92 L 189.20 66.92 L 189.38 66.92 L 190.08 66.92 L 190.42 66.92 L 191.17 66.92 L 191.52 66.92 L 192.25 66.92 L 192.26 66.92 L 192.95 66.92 L 193.73 66.92 L 193.74 66.92 L 194.41 66.92 L 194.97 66.92 L 195.70 66.92 L 195.86 66.92 L 196.25 66.92 L 196.95 66.92 L 197.66 66.92 L 198.08 66.92 L 198.19 66.92 L 198.94 66.92 L 199.52 66.92 L 199.85 66.92 L 200.18 66.92 L 200.76 66.92 L 201.48 66.92 L 201.66 66.92 L 202.40 66.92 L 203.08 66.92 L 203.62 66.92 L 203.82 66.92 L 204.53 66.92 L 204.71 66.92 L 205.46 66.92 L 205.65 66.92 L 206.53 66.92 L 206.73 66.92 L 207.42 66.92 L 207.80 66.92 L 208.18 66.92 L 208.56 66.92 L 209.05 66.92 L 209.62 66.92 L 210.50 66.92 L 210.54 66.92 L 211.07 66.92 L 211.91 66.92 L 212.48 66.92 L 212.51 66.92 L 213.39 66.92 L 213.96 66.92 L 214.31 66.92 L 214.68 66.92 L 215.39 66.92 L 215.55 66.92 L 216.28 66.92 L 216.48 66.92 L 217.34 66.92 L 217.53 66.92 L 218.11 66.92 L 218.81 66.92 L 219.17 66.92 L 219.74 66.92 L 220.09 66.92 L 220.82 66.92 L 221.00 66.92 L 221.88 66.92 L 222.06 66.92 L 222.63 66.92 L 223.32 66.92 L 223.49 66.92 L 224.03 66.92 L 224.76 66.92 L 225.33 66.92 L 225.85 66.92 L 226.22 66.92 L 226.77 66.92 L 226.94 66.92 L 227.66 66.92 L 228.03 66.92 L 228.78 66.92 L 229.10 66.92 L 229.48 66.92 L 229.84 66.92 L 230.56 66.92 L 230.94 66.92 L 231.64 66.92 L 232.18 66.92 L 232.75 66.92 L 232.77 66.92 L 233.62 66.92 L 234.21 66.92 L 234.35 66.92 L 234.88 66.92 L 235.45 66.92 L 236.00 66.92 L 236.69 66.92 L 236.90 66.92 L 237.71 66.92 L 237.76 66.92 L 238.50 66.92 L 239.19 66.92 L 239.20 66.92 L 239.97 66.92 L 240.18 66.92 L 240.67 66.92 L 241.22 66.92 L 241.92 66.92 L 242.49 66.92 L 242.84 66.92 L 243.20 66.92 L 243.93 66.92 L 244.13 66.92 L 245.01 66.92 L 245.18 66.92 L 245.74 66.92 L 246.44 66.92 L 247.01 66.92 L 247.16 66.92 L 247.89 66.92 L 248.46 66.92 L 248.99 66.92 L 249.33 66.92 L 249.88 66.92 L 250.07 66.92 L 250.97 66.92 L 251.51 66.92 L 252.03 66.92 L 252.05 66.92 L 252.78 66.92 L 253.49 66.92 L 253.67 66.92 L 254.05 66.92 L 254.76 66.92 L 255.48 66.92 L 255.66 66.92 L 256.02 66.92 L 256.75 66.92 L 257.30 66.92 L 257.65 66.92 L 258.37 66.92 L 258.91 66.92 L 259.44 66.92 L 259.82 66.92 L 260.01 66.92 L 260.90 66.92 L 260.93 66.92 L 261.62 66.92 L 262.35 66.92 L 262.53 66.92 L 262.90 66.92 L 263.79 66.92 L 264.34 66.92 L 264.52 66.92 L 265.23 66.92 L 265.42 66.92 L 265.96 66.92 L 266.68 66.92 L 267.22 66.92 L 267.58 66.92 L 267.94 66.92 L 268.51 66.92 L 269.29 66.92 L 269.82 66.92 L 270.02 66.92 L 270.31 67.04 L 270.81 251.71 L 271.30 509.18 L 271.83 560.85 L 272.72 618.03 L 273.09 592.68 L 273.63 596.50 L 274.26 599.23 L 274.62 596.40 L 275.08 593.83 L 275.26 597.79 L 275.98 600.33 L 276.34 605.05 L 276.88 610.63 L 277.41 602.69 L 278.14 605.23 L 278.41 607.50 L 279.05 612.58 L 279.59 609.35 L 280.13 611.84 L 280.31 609.92 L 280.85 610.65 L 281.40 613.14 L 281.76 617.27 L 282.30 616.72 L 282.84 608.79 L 283.19 617.30 L 283.92 611.44 L 284.20 612.64 L 284.65 610.04 L 285.37 619.99 L 285.64 619.98 L 286.46 618.53 L 287.07 618.20 L 287.18 620.19 L 287.63 626.36 L 288.26 619.37 L 288.97 618.24 L 289.43 630.24 L 289.97 608.42 L 290.24 625.81 L 290.77 622.67 L 291.15 620.65 L 291.79 619.11 L 292.50 628.49 L 293.03 620.45 L 293.04 620.10 L 293.86 626.75 L 294.31 623.17 L 294.85 627.19 L 295.05 625.48 L 295.76 619.66 L 296.20 623.51 L 296.64 625.78 L 297.20 625.66 L 297.93 618.29 L 298.37 618.81 L 298.65 612.54 L 299.09 628.85 L 299.73 632.63 L 300.09 630.82 L 300.63 624.08 L 301.26 623.88 L 301.53 619.39 L 302.34 630.81 L 302.71 624.81 L 303.06 624.88 L 303.41 625.00 L 304.16 627.38 L 304.43 626.22 L 304.97 643.74 L 305.87 628.00 L 305.88 629.26 L 306.60 622.97 L 307.30 615.83 L 307.41 635.89 L 308.04 632.22 L 308.48 631.60 L 309.30 632.40 L 309.49 632.04 L 309.95 627.71 L 310.66 630.83 L 311.17 628.71 L 311.38 639.15 L 312.20 639.46 L 312.55 647.41 L 313.10 616.17 L 313.63 638.07 L 313.83 628.62 L 314.28 636.90 L 315.26 644.23 L 315.28 642.42 L 315.98 628.95 L 316.54 633.29 L 317.15 644.09 L 317.42 632.01 L 317.98 629.73 L 318.72 633.10 L 318.87 631.44 L 319.33 629.50 L 319.76 635.20 L 320.32 646.81 L 320.86 633.88 L 321.50 633.52 L 321.77 636.96 L 322.38 637.62 L 322.74 632.50 L 323.64 632.55 L 323.75 629.26 L 324.65 626.99 L 324.66 626.05 L 325.45 637.49 L 326.11 627.34 L 326.53 630.02 L 326.88 638.41 L 327.29 629.23 L 328.11 634.57 L 328.12 633.86 L 328.64 634.65 L 329.39 636.28 L 330.00 642.70 L 330.44 635.89 L 330.91 630.84 L 331.35 642.58 L 331.62 643.02 L 332.43 639.24 L 333.05 635.00 L 333.45 628.46 L 333.91 632.51 L 334.06 640.28 L 334.79 639.69 L 335.36 637.45 L 335.76 637.52 L 336.23 628.22 L 337.00 628.03 L 337.39 624.23 L 337.92 630.97 L 338.07 627.02 L 338.85 626.69 L 339.10 632.24 L 339.85 634.09 L 340.28 631.96 L 340.95 634.83 L 340.99 624.90 L 341.55 640.35 L 342.31 633.00 L 342.44 634.28 L 343.42 642.95 L 343.51 637.47 L 344.20 627.01 L 344.90 628.12 L 344.91 628.50 L 345.54 644.05 L 346.35 631.48 L 346.88 630.89 L 346.88 630.96 L 347.43 634.45 L 347.87 640.49 L 348.54 645.09 L 348.96 627.17 L 349.66 630.72 L 350.03 628.38 L 350.42 626.93 L 351.23 646.63 L 351.35 645.02 L 352.12 633.61 L 352.67 634.73 L 352.86 626.55 L 353.56 628.93 L 354.29 637.90 L 354.31 634.99 L 355.20 648.36 L 355.77 633.60 L 355.80 632.11 L 356.31 639.01 L 357.06 636.84 L 357.44 638.40 L 357.98 648.84 L 358.32 640.87 L 359.13 642.61 L 359.36 628.82 L 360.11 645.47 L 360.61 652.62 L 360.79 636.09 L 361.23 645.39 L 361.89 635.64 L 362.23 636.06 L 362.82 642.82 L 363.67 638.29 L 363.68 639.04 L 364.23 636.26 L 365.12 639.64 L 365.58 628.35 L 365.70 645.52 L 366.57 647.49 L 367.12 631.88 L 367.14 633.98 L 368.12 636.00 L 368.13 635.38 L 369.00 639.51 L 369.47 652.66 L 370.02 634.59 L 370.58 643.95 L 370.92 635.89 L 371.32 646.85 L 371.72 635.87 L 372.09 640.87 L 372.79 641.68 L 373.26 633.36 L 373.89 636.73 L 374.37 631.50 L 374.85 635.66 L 375.27 639.26 L 375.65 637.64 L 376.44 644.22 L 376.71 625.59 L 377.19 642.94 L 377.60 641.49 L 378.15 644.82 L 378.89 643.76 L 379.19 635.26 L 379.57 642.37 L 380.16 635.87 L 380.69 645.44 L 381.46 641.46 L 381.58 636.91 L 382.45 639.01 L 382.48 632.57 L 383.25 625.41 L 383.78 629.82 L 383.93 640.06 L 384.47 637.96 L 385.00 627.57 L 385.41 640.68 L 386.27 651.37 L 386.84 638.40 L 387.21 644.81 L 387.69 639.20 L 388.25 632.85 L 388.69 636.83 L 389.32 638.16 L 389.71 641.20 L 390.24 629.89 L 390.44 623.85 L 391.18 631.63 L 391.58 640.43 L 391.92 640.42 L 392.61 650.24 L 393.32 639.25 L 393.35 634.06 L 394.03 634.34 L 394.80 638.48 L 394.84 635.36 L 395.56 637.60 L 395.87 637.21 L 396.56 641.77 L 396.99 621.66 L 397.40 636.87 L 397.76 643.21 L 398.48 634.43 L 399.12 627.95 L 399.52 647.79 L 399.80 627.71 L 400.56 637.92 L 400.98 634.29 L 401.68 639.24 L 402.07 626.36 L 402.31 644.62 L 403.07 636.78 L 403.48 640.18 L 403.99 654.25 L 404.57 641.77 L 404.91 640.94 L 405.60 628.65 L 405.67 638.25 L 406.39 625.08 L 406.66 641.86 L 407.41 633.18 L 408.14 630.18 L 408.14 630.24 L 408.74 638.82 L 409.62 638.77 L 410.03 634.61 L 410.35 632.33 L 410.72 636.34 L 411.35 637.26 L 411.83 624.53 L 412.57 633.65 L 412.81 631.78 L 413.09 636.76 L 413.89 635.97 L 414.38 643.03 L 414.73 630.94 L 415.38 645.64 L 415.71 640.59 L 416.14 626.93 L 416.89 636.92 L 417.49 641.81 L 417.97 632.25 L 418.02 645.70 L 418.88 637.39 L 419.24 645.26 L 419.80 626.23 L 420.06 630.95 L 420.53 636.05 L 421.11 630.48 L 421.88 632.20 L 422.26 650.81 L 422.70 635.78 L 423.05 639.32 L 423.70 633.17 L 424.38 644.49 L 424.74 658.50 L 425.19 638.50 L 425.82 645.07 L 426.09 638.84 L 426.53 639.25 L 427.29 642.98 L 427.72 638.68 L 427.95 649.71 L 428.74 637.13 L 429.14 647.09 L 429.87 639.29 L 429.89 637.47 L 430.51 636.39 L 431.26 630.20 L 431.69 640.22 L 431.90 630.26 L 432.70 633.45 L 433.08 633.13 L 433.48 635.98 L 434.17 636.94 L 434.49 642.89 L 435.29 636.17 L 435.31 637.54 L 436.27 640.42 L 436.68 622.85 L 437.05 633.26 L 437.38 632.21 L 438.11 636.05 L 438.62 653.94 L 438.84 645.12 L 439.50 645.57 L 440.00 631.87 L 440.60 644.31 L 441.01 636.02 L 441.35 643.20 L 442.09 633.73 L 442.50 638.57 L 442.91 637.77 L 443.46 632.12 L 443.85 650.24 L 444.62 632.79 L 444.74 642.76 L 445.37 632.38 L 445.81 636.14 L 446.27 656.68 L 446.81 636.74 L 447.48 653.76 L 447.90 642.56 L 448.28 631.81 L 448.84 648.91 L 449.44 635.65 L 449.70 630.35 L 450.41 649.53 L 450.80 645.72 L 451.22 647.31 L 451.84 631.69 L 452.60 638.15 L 452.63 634.17 L 453.27 643.42 L 454.06 630.89 L 454.08 632.37 L 455.01 641.19 L 455.56 645.86 L 455.57 645.82 L 456.17 637.43 L 456.93 641.15 L 457.52 647.32 L 457.54 650.11 L 458.43 647.77 L 459.02 652.23 L 459.05 647.94 L 459.62 648.75 L 460.14 648.74 L 460.99 641.98 L 461.00 642.05 L 461.75 639.15 L 462.39 650.35 L 462.74 653.35 L 463.44 646.45 L 463.47 647.91 L 464.22 631.90 L 464.84 635.88 L 464.98 646.58 L 465.62 627.31 L 466.03 636.49 L 466.60 632.92 L 467.37 633.93 L 467.42 640.46 L 468.18 632.55 L 468.52 638.34 L 468.94 640.49 L 469.68 635.56 L 469.98 646.55 L 470.63 646.04 L 471.37 636.83 L 471.40 633.49 L 472.08 648.82 L 472.84 633.22 L 472.85 634.00 L 473.54 636.49 L 473.98 633.16 L 474.58 635.85 L 475.16 645.60 L 475.76 636.82 L 476.01 645.71 L 476.44 646.62 L 477.20 624.98 L 477.50 635.44 L 477.87 639.97 L 478.36 635.43 L 479.18 646.95 L 479.32 637.04 L 479.77 640.98 L 480.51 639.16 L 481.16 646.76 L 481.55 642.12 L 481.80 642.22 L 482.58 647.61 L 482.96 630.31 L 483.30 638.53 L 484.13 636.93 L 484.37 645.14 L 485.09 646.88 L 485.51 648.14 L 485.78 648.79 L 486.26 639.54 L 486.75 651.23 L 487.34 636.71 L 488.04 653.46 L 488.35 645.99 L 488.76 637.65 L 489.50 630.76 L 489.71 642.27 L 490.22 637.45 L 490.86 649.99 L 491.34 641.08 L 491.62 645.19 L 492.20 643.01 L 493.06 643.44 L 493.46 644.54 L 493.62 650.19 L 494.56 631.23 L 494.59 633.80 L 495.09 650.77 L 495.97 635.88 L 496.16 657.37 L 497.06 649.89 L 497.46 632.12 L 497.94 644.30 L 498.46 652.55 L 498.90 635.03 L 499.19 644.30 L 499.89 652.06 L 500.30 633.35 L 500.65 636.12 L 501.47 652.52 L 501.59 644.82 L 502.22 653.25 L 502.70 636.30 L 503.36 644.09 L 503.86 647.55 L 504.35 638.88 L 504.81 642.57 L 505.17 644.93 L 505.90 648.56 L 506.07 639.96 L 506.89 655.08 L 507.26 643.86 L 507.70 631.86 L 508.01 640.45 L 508.68 641.48 L 509.38 639.88 L 509.41 645.39 L 510.40 657.86 L 510.46 640.19 L 511.10 648.29 L 511.86 649.84 L 512.30 648.56 L 512.63 635.28 L 513.34 640.29 L 513.63 639.53 L 514.03 644.76 L 514.37 656.30 L 515.19 646.57 L 515.59 658.38 L 516.21 645.89 L 516.71 651.62 L 517.25 658.82 L 517.68 646.46 L 517.99 650.88 L 518.38 638.26 L 519.16 635.38 L 519.78 650.44 L 520.25 649.93 L 520.49 650.50 L 521.05 638.98 L 521.33 667.54 L 522.01 629.86 L 522.28 662.81 L 522.80 664.27 L 523.42 639.04 L 523.76 641.30 L 524.72 643.16 L 524.74 640.11 L 525.56 639.56 L 526.20 651.99 L 526.22 649.61 L 526.81 646.53 L 527.51 650.15 L 527.80 649.97 L 528.25 650.66 L 529.17 642.37 L 529.20 638.32 L 529.91 643.39 L 530.65 637.52 L 530.66 636.93 L 531.34 667.89 L 532.01 650.91 L 532.49 641.31 L 532.63 641.36 L 533.53 642.95 L 533.91 639.26 L 534.38 647.90 L 535.01 640.00 L 535.38 633.33 L 535.95 641.13 L 536.44 632.38 L 536.81 638.99 L 537.57 641.10 L 537.83 636.65 L 538.29 645.38 L 539.05 659.74 L 539.28 650.09 L 539.67 647.79 L 540.38 646.17 L 540.79 636.72 L 541.52 655.46 L 541.82 651.25 L 542.21 642.17 L 542.77 665.95 L 543.31 646.80 L 543.98 656.42 L 544.36 652.69 L 544.98 662.70 L 545.10 635.61 L 545.87 649.36 L 546.09 652.48 L 546.91 638.31 L 546.95 650.27 L 547.94 649.60 L 548.00 636.70 L 548.93 646.47 L 548.94 645.64 L 549.85 646.00 L 549.96 651.27 L 550.62 648.35 L 550.93 656.28 L 551.82 654.89 L 552.14 643.15 L 552.52 650.52 L 553.26 655.32 L 553.81 653.33 L 554.17 647.51 L 554.40 653.29 L 555.15 639.81 L 555.62 647.38 L 555.90 649.43 L 556.70 637.10 L 557.03 643.06 L 557.36 652.63 L 558.13 629.82 L 558.49 645.74 L 558.87 639.93 L 559.60 639.54 L 560.29 645.77 L 560.67 639.20 L 561.04 648.93 L 561.74 641.01 L 561.77 645.14 L 562.50 647.30 L 562.80 650.13 L 563.48 644.44 L 564.24 641.22 L 564.25 641.15 L 565.04 649.52 L 565.35 641.56 L 566.07 650.53 L 566.71 641.06 L 567.14 637.24 L 567.59 643.91 L 568.19 642.16 L 568.27 622.83 L 569.02 638.49 L 569.68 641.06 L 569.74 636.60 L 570.62 642.54 L 571.13 634.27 L 571.16 638.35 L 571.80 641.56 L 572.53 643.92 L 572.96 639.26 L 573.38 643.68 L 573.93 642.74 L 574.35 636.60 L 574.72 647.78 L 575.49 636.08 L 575.84 638.84 L 576.55 629.18 L 576.59 632.29 L 577.35 657.08 L 577.89 662.00 L 578.34 644.11 L 578.74 631.72 L 579.11 640.80 L 579.86 638.84 L 580.15 643.13 L 580.91 646.12 L 581.26 639.37 L 581.62 631.46 L 582.21 635.73 L 582.72 641.38 L 583.18 645.73 L 583.85 642.31 L 584.08 637.96 L 584.54 642.11 L 585.18 633.48 L 585.96 633.53 L 585.98 635.43 L 586.62 652.92 L 587.07 633.28 L 587.83 648.81 L 588.09 641.13 L 588.48 636.43 L 589.23 652.84 L 589.62 650.32 L 590.32 651.84 L 590.72 642.73 L 591.33 638.09 L 591.46 636.40 L 592.15 641.75 L 592.87 640.69 L 593.17 640.93 L 593.88 652.21 L 594.27 644.50 L 594.54 637.12 L 595.32 642.26 L 595.39 648.38 L 596.12 657.31 L 596.52 637.66 L 597.19 637.06 L 597.78 656.76 L 598.01 648.57 L 598.59 638.20 L 598.88 641.75 L 599.48 648.74 L 600.06 653.97 L 600.49 650.33 L 601.29 641.67 L 601.44 635.60 L 602.12 638.03 L 602.30 641.53 L 603.02 635.53 L 603.29 650.84 L 604.10 651.40 L 604.75 642.46 L 604.79 634.95 L 605.40 652.07 L 606.06 631.38 L 606.28 643.98 L 607.09 640.88 L 607.57 649.75 L 608.07 657.15 L 608.31 629.94 L 609.09 639.25 L 609.35 654.02 L 609.77 649.90 L 610.54 635.08 L 611.17 636.25 L 611.20 632.45 L 611.87 652.68 L 612.49 652.85 L 612.93 646.88 L 613.45 635.12 L 613.87 634.13 L 614.55 637.04 L 614.83 634.40 L 615.55 639.30 L 615.81 637.61 L 616.28 628.17 L 617.01 641.12 L 617.40 636.42 L 618.05 644.76 L 618.41 648.26 L 618.93 637.69 L 619.17 637.81 L 619.87 635.00 L 620.36 637.51 L 620.75 640.00 L 621.38 651.47 L 622.04 642.61 L 622.08 633.58 L 622.78 623.17 L 623.40 646.66 L 623.86 645.62 L 624.23 645.64 L 624.67 642.24 L 625.46 632.74 L 625.98 634.49 L 626.15 634.09 L 626.74 655.72 L 627.35 638.80 L 627.92 636.35 L 627.97 642.72 L 628.57 632.68 L 629.41 641.56 L 629.64 641.32 L 630.36 643.47 L 630.44 653.67 L 631.43 635.08 L 631.44 633.58 L 632.20 628.56 L 632.75 645.07 L 633.34 635.74 L 633.40 640.17 L 634.35 633.98 L 634.70 634.50 L 635.30 656.00 L 635.80 650.02 L 636.23 640.48 L 636.55 640.05 L 636.98 635.49 L 637.70 640.82 L 638.34 640.91 L 638.37 637.64 L 638.93 640.80 L 639.38 643.67 L 640.14 637.46 L 640.53 641.95 L 640.92 648.44 L 641.59 638.85 L 642.03 642.02 L 642.77 640.58 L 643.01 638.88 L 643.74 648.97 L 644.06 646.46 L 644.70 651.05 L 645.00 641.62 L 645.26 644.52 L 645.92 635.94 L 646.25 652.05 L 647.05 654.19 L 647.66 644.34 L 647.80 643.93 L 648.52 642.31 L 649.21 642.77 L 649.23 641.00 L 649.84 648.76 L 650.66 647.17 L 651.04 638.22 L 651.68 648.85 L 651.70 645.63 L 652.31 635.22 L 653.16 655.89 L 653.66 650.59 L 653.88 650.41 L 654.58 646.93 L 655.03 639.06 L 655.18 658.38 L 656.03 634.47 L 656.29 648.67 L 656.81 635.50 L 657.46 637.25 L 658.06 644.30 L 658.10 653.14 L 659.00 640.28 L 659.53 658.58 L 659.82 645.93 L 660.12 637.15 L 660.67 631.51 L 661.15 643.65 L 661.80 655.02 L 662.11 639.81 L 662.56 646.45 L 663.25 646.25 L 663.90 640.34 L 664.30 649.34 L 664.68 642.92 L 665.15 643.58 L 665.87 648.89 L 666.11 641.43 L 666.63 642.73 L 667.20 655.17 L 667.65 653.49 L 668.34 650.13 L 668.76 643.05 L 669.16 639.95 L 669.67 643.08 L 670.39 647.71 L 670.79 647.75 L 671.05 653.90 L 671.67 633.27 L 672.36 632.45 L 672.59 647.73 L 673.42 651.13 L 673.45 649.18 L 674.21 640.92 L 674.79 641.05 L 675.16 637.26 L 675.41 649.55 L 676.05 638.66 L 676.65 641.04 L 677.29 645.58 L 677.68 635.17 L 678.17 638.90 L 678.46 629.40 L 679.11 643.66 L 679.43 644.15 L 679.94 637.15 L 680.60 634.52 L 680.93 632.50 L 681.65 642.98 L 682.01 642.30 L 682.49 632.80 L 683.24 625.42 L 683.48 635.21 L 683.81 634.52 L 684.29 646.01 L 685.02 644.05 L 685.65 638.95 L 686.18 655.66 L 686.40 637.95 L 687.19 644.40 L 687.40 642.33 L 688.13 636.38 L 688.33 638.73 L 688.85 637.97 L 689.27 634.64 L 689.72 635.09 L 690.28 639.63 L 691.11 642.85 L 691.22 643.39 L 692.17 631.62 L 692.19 634.95 L 692.77 645.03 L 693.55 644.78 L 694.11 634.60 L 694.63 634.36 L 694.66 640.56 L 695.53 642.04 L 695.87 643.09 L 696.14 653.53 L 696.82 643.30 L 697.28 637.82 L 698.05 643.17 L 698.53 630.20 L 698.98 641.08 L 699.36 642.65 L 699.91 645.24 L 700.13 644.73 L 700.84 629.65 L 701.43 641.72 L 701.62 636.90 L 702.54 633.51 L 703.06 619.89 L 703.06 619.90 L 703.70 626.75 L 704.05 636.70 L 704.89 639.54 L 705.16 646.73 L 705.63 631.73 L 706.37 634.50 L 706.62 633.05 L 707.07 627.41 L 707.80 631.63 L 708.06 641.26 L 708.84 629.08 L 709.48 644.81 L 709.53 630.30 L 710.31 643.19 L 710.94 637.85 L 711.38 631.79 L 711.69 633.24 L 712.10 630.59 L 712.81 643.27 L 713.12 645.45 L 713.51 647.70 L 714.30 636.28 L 714.58 632.84 L 715.29 636.80 L 715.61 638.90 L 716.39 641.06 L 716.41 640.34 L 717.17 624.84 L 717.51 642.27 L 718.02 631.85 L 718.66 633.04 L 719.36 649.39 L 719.38 646.79 L 720.35 646.31 L 720.37 645.75 L 721.10 632.07 L 721.53 623.71 L 722.31 643.17 L 722.32 644.14 L 722.97 631.29 L 723.53 647.46 L 723.94 640.02 L 724.71 638.69 L 725.11 629.88 L 725.29 645.71 L 725.88 638.72 L 726.55 633.00 L 726.89 631.88 L 727.49 636.69 L 728.03 641.32 L 728.74 636.35 L 728.78 634.04 L 729.48 640.42 L 730.18 639.79 L 730.23 644.61 L 730.90 642.35 L 731.67 639.39 L 731.71 649.87 L 732.66 630.17 L 732.70 636.62 L 733.28 648.03 L 734.10 651.98 L 734.53 640.62 L 735.04 640.69 L 735.51 633.38 L 735.97 634.20 L 736.31 635.55 L 736.90 640.37 L 737.49 628.01 L 737.68 643.94 L 738.43 636.83 L 738.64 635.21 L 739.58 638.27 L 739.61 643.12 L 740.17 636.33 L 741.05 635.40 L 741.10 641.07 L 741.75 635.96 L 742.57 639.90 L 742.58 640.17 L 743.07 641.28 L 743.89 647.67 L 744.28 648.35 L 744.85 629.77 L 745.32 649.56 L 745.96 645.62 L 746.39 636.49 L 747.01 653.04 L 747.52 641.92 L 747.69 639.27 L 748.39 646.87 L 748.81 643.44 L 749.28 638.83 L 749.68 636.67 L 750.24 641.98 L 750.48 647.72 L 751.11 639.96 L 751.91 634.55 L 752.21 636.68 L 752.61 633.66 L 753.17 638.92 L 753.47 640.72 L 754.06 634.87 L 754.81 632.93 L 754.95 649.30 L 755.50 641.89 L 756.22 642.24 L 756.41 647.25 L 757.15 638.85 L 757.67 633.59 L 758.38 630.47 L 758.39 630.60 L 759.25 639.93 L 759.80 644.58 L 759.99 636.33 L 760.58 628.07 L 761.28 645.98 L 761.83 633.94 L 761.84 634.76 L 762.83 637.15 L 762.85 635.34 L 763.51 636.95 L 764.22 629.36 L 764.42 647.57 L 764.91 634.29 L 765.73 653.88 L 765.86 647.64 L 766.39 635.57 L 767.18 636.81 L 767.28 645.49 L 767.96 641.58 L 768.58 636.57 L 769.24 634.61 L 769.25 635.16 L 770.18 634.12 L 770.70 649.33 L 770.81 640.21 L 771.54 632.75 L 772.16 637.84 L 772.39 641.36 L 772.79 629.59 L 773.54 632.06 L 774.18 644.00 L 774.48 632.38 L 775.08 627.33 L 775.18 641.94 L 775.75 628.79 L 776.47 633.24 L 777.16 634.46 L 777.16 634.23 L 777.91 633.72 L 778.60 634.76 L 778.64 636.94 L 779.37 630.98 L 780.09 643.45 L 780.51 644.43 L 780.82 630.85 L 781.52 641.45 L 781.75 638.37 L 782.23 637.22 L 783.09 635.15 L 783.11 633.48 L 783.72 621.98 L 784.48 641.99 L 784.63 640.75 L 785.36 652.52 L 785.77 632.21 L 786.31 639.77 L 786.59 636.65 L 787.12 634.99 L 788.03 637.90 L 788.05 636.20 L 788.82 645.14 L 789.49 649.56 L 789.75 632.71 L 790.35 639.05 L 790.90 646.31 L 791.09 637.14 L 791.73 637.29 L 792.40 644.96 L 792.85 647.16 L 793.31 637.48 L 793.92 642.93 L 794.31 634.19 L 794.67 635.32 L 795.05 629.32 L 795.53 637.41 L 796.17 634.04 L 796.92 638.68 L 797.38 637.08 L 797.56 638.85 L 798.14 635.68 L 798.86 634.54 L 799.00 636.43 L 799.83 636.74 L 800.32 633.36 L 800.38 640.15 L 801.04 640.50 L 801.79 635.14 L 801.86 641.75 L 802.64 647.36 L 803.34 637.32 L 803.37 634.76 L 803.94 630.02 L 804.63 631.71 L 805.32 641.67 L 805.39 635.14 L 806.23 628.25 L 806.64 640.05 L 806.82 641.25 L 807.73 641.74 L 808.28 642.95 L 808.29 642.28 L 809.11 633.72 L 809.70 629.60 L 809.76 633.91 L 810.49 622.00 L 811.17 631.06 L 811.29 649.06 L 812.23 638.84 L 812.23 638.81 L 812.83 645.41 L 813.45 632.58 L 814.21 646.37 L 814.25 642.07 L 814.87 631.64 L 815.47 637.13 L 815.76 639.95 L 816.30 637.09 L 816.95 644.64 L 817.61 635.56 L 817.79 629.56 L 818.40 635.12 L 819.04 643.31 L 819.58 644.59 L 820.00 644.80 L 820.51 644.66 L 820.71 635.69 L 821.34 630.60 L 822.03 649.05 L 822.35 639.76 L 822.66 641.35 L 823.17 646.39 L 823.97 645.45 L 824.17 638.22 L 824.98 646.41 L 825.45 643.64 L 825.65 633.49 L 826.15 646.47 L 827.05 635.20 L 827.08 633.22 L 827.76 637.02 L 828.51 632.50 L 828.53 636.65 L 829.35 637.72 L 829.97 638.33 L 830.14 644.48 L 830.80 636.72 L 831.44 651.97 L 831.56 656.25 L 832.07 624.57 L 832.86 634.84 L 833.34 637.43 L 833.55 640.35 L 834.31 636.09 L 834.65 654.15 L 835.40 643.26 L 835.89 643.98 L 836.16 653.92 L 836.57 651.00 L 837.35 641.82 L 837.43 660.43 L 838.00 642.96 L 838.64 628.60 L 838.91 636.90 L 839.67 649.17 L 840.06 642.13 L 840.88 643.40 L 840.91 636.09 L 841.54 640.32 L 842.04 636.97 L 842.37 639.96 L 842.98 644.57 L 843.82 628.55 L 844.24 632.44 L 844.74 636.64 L 845.13 638.44 L 845.78 647.67 L 845.87 634.63 L 846.70 641.09 L 847.31 629.87 L 847.32 629.31 L 848.03 637.41 L 848.71 653.74 L 848.89 654.36 L 849.49 636.99 L 850.19 631.37 L 850.45 631.70 L 850.89 628.72 L 851.55 636.69 L 852.09 646.60 L 852.48 633.90 L 852.88 637.42 L 853.36 633.58 L 853.78 641.51 L 854.32 652.44 L 855.18 646.58 L 855.36 628.50 L 855.92 639.17 L 856.65 639.96 L 856.81 641.86 L 857.55 630.51 L 857.76 646.16 L 858.67 638.22 L 859.03 637.65 L 859.66 647.81 L 859.71 632.20 L 860.15 651.61 L 861.14 643.23 L 861.15 642.44 L 861.72 634.21 L 862.62 642.50 L 862.63 642.11 L 863.21 642.96 L 864.05 633.40 L 864.32 637.63 L 864.94 646.85 L 865.33 638.13 L 865.70 646.25 L 866.27 641.38 L 866.97 634.25 L 867.48 639.22 L 867.58 638.10 L 868.23 635.80 L 868.93 638.88 L 869.04 655.93 L 869.66 639.27 L 870.38 646.25 L 870.58 630.98 L 871.02 648.10 L 871.93 641.36 L 872.06 652.39 L 872.99 641.09 L 873.00 640.65 L 873.98 631.06 L 874.00 625.86 L 874.89 644.48 L 875.46 638.28 L 875.62 633.88 L 876.37 634.81 L 876.92 649.29 L 877.08 645.96 L 877.68 651.16 L 878.31 630.31 L 878.51 648.56 L 879.07 634.26 L 879.58 638.39 L 879.91 644.18 L 880.68 640.08 L 880.90 642.61 L 881.51 653.14 L 882.27 641.53 L 882.50 640.33 L 882.88 651.97 L 883.59 639.97 L 884.24 635.69 L 884.85 649.98 L 885.08 644.62 L 885.55 646.34 L 886.08 649.91 L 886.46 634.50 L 887.17 640.15 L 887.74 637.67 L 888.06 643.12 L 888.47 634.08 L 888.98 653.11 L 889.74 645.64 L 889.88 628.83 L 890.63 637.90 L 890.87 636.73 L 891.51 632.28 L 892.09 649.47 L 892.75 634.52 L 892.79 628.49 L 893.53 638.21 L 894.24 632.16 L 894.27 627.88 L 894.94 633.41 L 895.72 642.78 L 896.07 637.61 L 896.39 626.12 L 897.14 625.30 L 897.33 642.03 L 897.81 643.07 L 898.68 640.96 L 898.73 624.54 L 899.18 633.88 L 900.16 633.81 L 900.19 631.70 L 900.94 642.19 L 901.64 631.19 L 901.84 629.71 L 902.19 625.32 L 903.08 626.75 L 903.29 629.82 L 903.82 627.60 L 904.50 637.57 L 904.93 639.75 L 905.30 629.96 L 905.93 630.60 L 906.53 645.91 L 906.73 643.22 L 907.42 627.12 L 907.97 625.98 L 908.20 630.45 L 908.89 637.94 L 909.36 632.06 L 909.89 639.81 L 910.30 625.58 L 910.72 629.57 L 911.43 637.66 L 911.74 628.47 L 912.51 644.22 L 913.01 630.18 L 913.01 630.05 L 913.72 635.36 L 914.26 633.55 L 914.87 636.41 L 915.15 638.34 L 915.90 632.37 L 916.09 635.93 L 916.63 640.11 L 917.45 642.13 L 917.47 640.78 L 918.30 642.26 L 918.93 629.28 L 918.94 629.37 L 919.54 637.54 L 920.04 637.65 L 920.91 636.79 L 920.92 636.00 L 921.86 631.89 L 922.27 631.80 L 922.42 632.97 L 923.30 634.13 L 923.64 637.06 L 924.07 638.50 L 924.56 628.40 L 925.32 635.35 L 925.83 631.74 L 925.85 635.74 L 926.41 650.70 L 927.30 636.39 L 927.59 638.89 L 928.05 643.18 L 928.42 635.25 L 929.08 640.55 L 929.63 635.53 L 929.85 640.38 L 930.39 640.50 L 931.29 638.83 L 931.29 638.83 L 931.98 638.71 L 932.73 641.30 L 933.26 631.72 L 933.26 631.92 L 934.16 636.95 L 934.55 640.16 L 934.87 634.06 L 935.40 644.07 L 936.14 624.76 L 936.34 630.61 L 937.08 629.64 L 937.26 635.20 L 937.77 637.11 L 938.49 641.51 L 939.04 634.94 L 939.19 636.96 L 939.96 625.82 L 940.52 633.70 L 941.17 636.55 L 941.18 634.27 L 941.95 636.33 L 942.65 633.58 L 942.65 633.52 L 943.18 631.70 L 944.07 627.59 L 944.29 641.73 L 944.99 625.61 L 945.39 634.96 L 945.74 637.58 L 946.45 630.32 L 946.99 641.88 L 947.19 633.08 L 947.85 634.27 L 948.30 631.82 L 948.65 634.06 L 949.26 631.90 L 950.06 626.25 L 950.07 625.62 L 950.74 640.62 L 951.54 627.36 L 951.54 627.49 L 952.23 632.97 L 952.78 649.51 L 953.50 643.46 L 953.64 638.68 L 954.20 619.98 L 954.71 640.15 L 955.13 639.04 L 955.84 647.12 L 956.38 635.26 L 956.96 621.90 L 956.98 624.28 L 957.96 628.82 L 957.98 628.09 L 958.51 636.55 L 959.44 631.10 L 959.47 626.14 L 959.98 635.78 L 960.51 638.57 L 961.41 646.35 L 961.42 647.05 L 962.33 626.58 L 962.87 643.16 L 963.09 636.57 L 963.48 642.68 L 964.20 646.42 L 964.54 640.67 L 965.19 637.28 L 965.46 642.52 L 965.96 644.61 L 966.60 650.49 L 967.06 640.50 L 967.42 641.89 L 968.13 628.21 L 968.51 644.97 L 969.25 645.97 L 969.58 639.13 L 970.23 638.44 L 970.81 640.56 L 970.84 635.39 L 971.58 637.98 L 971.80 648.32 L 972.34 637.79 L 973.28 648.59 L 973.40 637.18 L 973.89 640.78 L 974.66 638.92 L 975.19 642.66 L 975.35 650.05 L 975.88 647.19 L 976.65 635.93 L 977.01 643.02 L 977.35 637.70 L 978.17 633.80 L 978.22 643.68 L 978.75 651.20 L 979.69 636.71 L 979.80 633.52 L 980.23 634.84 L 981.02 643.74 L 981.26 649.29 L 981.79 645.52 L 982.52 634.64 L 982.79 634.85 L 983.43 639.63 L 984.14 638.33 L 984.15 637.35 L 984.68 639.39 L 985.42 632.18 L 986.12 639.60 L 986.13 639.34 L 986.78 637.74 L 987.44 641.03 L 987.60 657.28 L 988.58 636.41 L 988.59 637.83 L 989.14 643.27 L 989.76 645.69 L 990.56 643.73 L 990.57 643.98 L 991.24 635.49 L 991.65 627.35 L 992.28 649.69 L 992.82 629.74 L 993.36 642.99 L 993.56 654.27 L 994.36 640.09 L 994.56 642.13 L 995.51 639.99 L 995.51 639.88 L 996.45 639.77 L 996.99 639.34 L 997.43 636.87 L 997.69 631.06 L 998.01 644.98 L 998.90 646.73 L 999.13 646.78 L 999.86 646.63 L 1000.42 642.46 L 1000.60 641.41 L 1001.29 655.61 L 1001.49 639.12 L 1002.23 649.94 L 1002.92 639.40 L 1003.21 628.97 L 1003.85 651.36 L 1004.38 632.97 L 1004.58 636.42 L 1004.93 635.89 L 1005.65 632.58 L 1005.92 642.96 L 1006.84 646.33 L 1007.28 630.87 L 1007.54 635.34 L 1008.11 641.85 L 1008.45 645.15 L 1009.24 631.60 L 1009.36 638.38 L 1010.17 626.19 L 1010.45 633.47 L 1010.89 646.47 L 1011.71 646.33 L 1012.18 645.54 L 1012.43 653.75 L 1013.09 643.64 L 1013.43 640.09 L 1013.79 654.17 L 1014.77 642.98 L 1015.14 641.02 L 1015.60 643.08 L 1015.96 637.05 L 1016.49 627.61 L 1017.21 640.51 L 1017.49 639.11 L 1017.95 637.14 L 1018.67 646.63 L 1018.94 644.65 L 1019.56 647.14 L 1020.01 643.24 L 1020.56 628.71 L 1020.94 628.36 L 1021.28 644.79 L 1021.74 632.43 L 1022.56 644.29 L 1022.91 634.02 L 1023.28 636.63 L 1024.01 642.63 L 1024.61 652.84 L 1024.72 656.03 L 1025.26 657.71 L 1026.05 646.94 L 1026.33 651.51 L 1026.89 638.03 L 1027.27 646.72 L 1027.89 644.44 L 1028.17 643.61 L 1029.05 632.77 L 1029.16 642.42 L 1029.77 639.94 L 1030.51 642.45 L 1030.66 652.32 L 1031.40 638.43 L 1031.57 645.41 L 1032.13 636.04 L 1032.66 638.02 L 1033.54 639.20 L 1033.55 639.10 L 1034.21 644.98 L 1034.84 636.02 L 1035.21 643.58 L 1035.59 642.05 L 1036.46 648.20 L 1036.99 641.52 L 1037.36 640.49 L 1037.90 628.06 L 1038.29 632.29 L 1038.83 652.77 L 1039.10 641.99 L 1039.88 642.17 L 1040.06 639.04 L 1040.62 632.52 L 1041.36 638.31 L 1041.74 647.66 L 1042.06 636.62 L 1042.70 635.49 L 1043.15 647.87 L 1043.69 635.63 L 1044.06 633.42 L 1044.77 646.46 L 1044.97 636.71 L 1045.81 648.03 L 1046.39 641.01 L 1046.40 639.59 L 1046.96 643.14 L 1047.55 653.20 L 1048.00 652.07 L 1048.50 654.96 L 1049.19 645.48 L 1049.46 630.45 L 1049.93 651.51 L 1050.83 645.50 L 1050.89 639.37 L 1051.62 637.05 L 1051.90 638.41 L 1052.38 640.85 L 1052.91 640.71 L 1053.62 634.51 L 1053.82 639.40 L 1054.70 634.06 L 1055.24 637.80 L 1055.63 637.42 L 1055.98 643.35 L 1056.72 649.05 L 1057.00 659.94 L 1057.30 649.97 L 1057.95 646.90 L 1058.32 648.48 L 1058.83 653.65 L 1059.34 644.71 L 1059.92 649.85 L 1060.52 638.96 L 1060.89 643.64 L 1061.46 639.90 L 1062.20 635.35 L 1062.22 631.92 L 1063.11 642.60 L 1063.64 649.71 L 1063.94 649.18 L 1064.42 643.18 L 1064.91 641.93 L 1065.19 636.54 L 1065.82 643.24 L 1066.56 645.38 L 1067.05 641.70 L 1067.20 642.06 L 1068.09 647.51 L 1068.31 643.70 L 1068.83 650.55 L 1069.17 645.67 L 1070.00 643.27 L 1070.11 649.52 L 1070.85 642.56 L 1071.26 645.51 L 1072.06 642.20 L 1072.30 631.31 L 1072.96 640.72 L 1073.41 632.86 L 1073.85 643.49 L 1074.15 644.14 L 1074.71 645.27 L 1075.31 634.28 L 1076.03 634.55 L 1076.03 634.64 L 1076.65 640.15 L 1077.48 644.15 L 1077.64 644.04 L 1078.36 637.21 L 1078.61 634.92 L 1079.46 645.42 L 1079.83 640.22 L 1080.05 639.38 L 1080.74 638.71 L 1081.10 639.33 L 1081.85 641.21 L 1082.45 639.44 L 1082.47 637.78 L 1083.18 638.67 L 1083.66 640.70 L 1084.15 635.57 L 1084.63 643.77 L 1085.33 642.50 L 1085.44 640.14 L 1086.14 644.34 L 1086.86 641.07 L 1087.06 642.50 L 1087.85 641.02 L 1088.32 628.40 L 1088.51 637.71 L 1088.95 640.46 L 1089.68 642.97 L 1090.32 629.16 L 1090.47 639.77 L 1091.02 642.51 L 1091.42 639.78 L 1091.96 649.75 L 1092.65 646.81 L 1093.31 639.79 L 1093.32 640.72 L 1094.27 634.89 L 1094.74 642.16 L 1094.83 646.68 L 1095.72 633.46 L 1096.19 643.52 L 1096.56 634.06 L 1096.90 635.23 L 1097.46 643.76 L 1098.03 644.02 L 1098.63 634.95 L 1099.10 641.34 L 1099.70 648.80 L 1100.05 635.58 L 1100.61 636.23 L 1101.17 645.04 L 1101.72 640.73 L 1101.73 639.42 L 1102.68 635.12 L 1102.79 635.04 L 1103.35 639.58 L 1104.19 644.33 L 1104.41 641.84 L 1104.93 636.56 L 1105.63 635.93 L 1105.84 634.15 L 1106.29 643.89 L 1106.98 638.31 L 1107.54 635.97 L 1108.10 629.77 L 1108.46 638.99 L 1108.98 628.35 L 1109.37 625.77 L 1110.00 636.21 L 1110.47 632.04 L 1111.00 627.29 L 1111.44 628.95 L 1111.64 625.74 L 1112.16 639.69 L 1112.82 638.98 L 1113.44 632.14 L 1113.63 637.10 L 1114.45 628.85 L 1115.06 634.20 L 1115.09 628.19 L 1115.78 634.20 L 1116.52 633.34 L 1116.54 635.25 L 1117.43 640.10 L 1117.88 640.53 L 1118.51 643.62 L 1118.57 631.77 L 1119.31 632.37 L 1119.69 631.19 L 1120.31 634.64 L 1120.84 643.20 L 1121.44 648.50 L 1121.75 642.58 L 1122.02 634.57 L 1122.66 635.17 L 1123.34 634.48 L 1123.74 647.61 L 1124.29 633.19 L 1124.87 624.47 L 1125.36 638.66 L 1125.73 642.69 L 1126.09 629.48 L 1126.68 629.90 L 1127.35 635.09 L 1127.81 636.27 L 1128.11 634.36 L 1128.74 634.06 L 1128.97 623.43 L 1129.45 634.53 L 1130.15 636.67 L 1130.43 627.83 L 1130.97 637.18 L 1131.78 634.51 L 1132.14 635.75 L 1132.52 639.23 L 1133.11 635.56 L 1133.59 640.95 L 1134.06 638.50 L 1134.77 627.10 L 1135.22 632.73 L 1135.32 634.10 L 1136.20 632.74 L 1136.42 627.14 L 1136.97 641.28 L 1137.62 630.65 L 1137.92 627.99 L 1138.39 640.75 L 1139.09 642.56 L 1139.37 632.88 L 1139.95 640.49 L 1140.59 636.07 L 1141.11 641.64 L 1141.69 645.05 L 1142.00 646.03 L 1142.23 646.45 L 1142.80 635.27 L 1143.70 629.30 L 1143.71 629.60 L 1144.68 638.05 L 1144.89 628.96 L 1145.42 647.41 L 1146.14 636.51 L 1146.34 627.52 L 1146.86 628.88 L 1147.43 636.29 L 1147.97 627.16 L 1148.35 633.07 L 1148.93 639.39 L 1149.22 632.59 L 1149.95 641.11 L 1150.47 642.31 L 1150.76 633.22 L 1151.19 633.08 L 1151.89 637.76 L 1152.52 641.67 L 1152.69 636.85 L 1153.39 639.04 L 1153.95 633.16 L 1154.35 638.98 L 1154.73 634.71 L 1155.25 630.58 L 1155.63 624.33 L 1156.55 641.24 L 1156.70 630.25 L 1157.24 632.95 L 1157.90 636.36 L 1158.47 634.05 L 1158.87 642.04 L 1159.33 636.37 L 1159.57 630.24 L 1160.16 646.30 L 1160.99 634.43 L 1161.17 632.51 L 1161.85 641.27 L 1162.25 627.37 L 1162.64 635.01 L 1163.01 641.43 L 1163.52 643.91 L 1164.13 638.19 L 1164.77 637.08 L 1165.33 638.17 L 1165.89 628.21 L 1165.94 639.73 L 1166.56 635.35 L 1166.93 653.02 L 1167.69 639.40 L 1168.00 637.71 L 1168.90 641.11 L 1169.12 632.88 L 1169.58 640.20 L 1170.02 645.46 L 1170.55 637.00 L 1171.28 633.22 L 1171.37 646.64 L 1172.35 630.43 L 1172.57 629.00 L 1173.33 635.32 L 1173.62 629.35 L 1174.34 641.43 L 1174.36 635.39 L 1175.25 624.53 L 1175.65 632.41 L 1176.31 636.26 L 1176.35 632.95 L 1177.07 630.52 L 1177.47 646.33 L 1178.02 641.00 L 1178.39 632.44 L 1178.94 645.35 L 1179.28 646.84 L 1180.03 643.27 L 1180.39 642.30 L 1181.03 636.65 L 1181.48 634.81 L 1182.18 640.12 L 1182.67 635.46 L 1182.92 628.78 L 1183.64 638.22 L 1183.91 636.82 L 1184.28 644.04 L 1184.91 637.37 L 1185.63 636.10 L 1185.77 636.45 L 1186.44 644.80 L 1186.81 637.37 L 1187.28 644.06 L 1187.89 649.65 L 1188.46 637.93 L 1189.04 628.28 L 1189.42 643.50 L 1189.96 640.04 L 1190.55 646.01 L 1191.13 640.05 L 1191.15 638.07 L 1191.88 645.09 L 1192.57 627.68 L 1192.62 633.50 L 1193.11 638.51 L 1193.91 630.31 L 1194.56 638.20 L 1195.00 644.97 L 1195.19 634.01 L 1195.84 633.95 L 1196.23 646.63 L 1196.72 640.97 L 1197.47 629.99 L 1198.05 640.48 L 1198.35 630.57 L 1198.83 636.85 L 1199.47 636.48 L 1199.82 643.44 L 1200.23 635.57 L 1200.97 637.87 L 1201.48 631.76 L 1201.87 630.17 L 1202.11 640.98 L 1202.97 638.96 L 1203.48 636.41 L 1203.50 635.02 L 1204.16 628.52 L 1204.69 638.06 L 1205.24 632.72 L 1205.95 633.47 L 1205.96 633.38 L 1206.76 632.64 L 1206.99 628.76 L 1207.71 633.32 L 1208.30 634.45 L 1208.90 632.41 L 1209.03 629.80 L 1209.59 633.49 L 1210.37 628.10 L 1210.40 631.36 L 1211.04 629.61 L 1211.78 630.82 L 1212.33 639.12 L 1212.81 628.86 L 1213.18 627.87 L 1213.44 631.23 L 1214.19 634.81 L 1214.57 630.53 L 1215.07 632.79 L 1215.41 627.10 L 1216.17 623.50 L 1216.80 626.79 L 1216.82 628.31 L 1217.39 625.64 L 1218.30 634.76 L 1218.53 623.57 L 1219.24 627.38 L 1219.69 630.49 L 1219.86 624.98 L 1220.53 633.06 L 1221.17 630.35 L 1221.48 617.74 L 1221.93 628.07 L 1222.75 631.27 L 1222.79 627.11 L 1223.38 627.33 L 1223.75 627.14 L 1224.64 619.54 L 1224.94 620.11 L 1225.23 631.83 L 1226.07 630.31 L 1226.63 626.29 L 1226.99 627.33 L 1227.27 627.21 L 1227.85 619.18 L 1228.46 632.00 L 1228.97 625.42 L 1229.23 629.53 L 1230.09 624.53 L 1230.16 627.94 L 1230.88 633.29 L 1231.60 629.45 L 1232.00 626.36 L 1232.17 629.63 L 1233.10 624.37 L 1233.12 626.51 L 1233.63 635.33 L 1234.45 628.42 L 1235.03 630.37 L 1235.28 626.13 L 1235.87 626.99 L 1236.55 630.52 L 1236.77 626.71 L 1237.38 627.68 L 1237.91 631.77 L 1238.45 624.98 L 1238.84 621.08 L 1239.37 626.02 L 1239.92 620.94 L 1240.12 620.19 L 1240.83 623.11 L 1241.46 626.08 L 1241.64 626.88 L 1242.11 625.20 L 1242.96 627.07 L 1243.26 623.65 L 1243.70 622.91 L 1244.34 623.76 L 1244.62 627.36 L 1245.05 623.62 L 1245.69 629.28 L 1246.46 620.18 L 1246.46 620.26 L 1247.42 621.76 L 1247.79 623.65 L 1248.10 618.77 L 1248.85 628.23 L 1249.23 630.69 L 1249.48 627.68 L 1250.38 621.70 L 1250.91 624.12 L 1250.94 621.89 L 1251.49 625.29 L 1252.39 626.13 L 1252.40 625.94 L 1253.02 626.67 L 1253.67 620.43 L 1254.29 629.76 L 1254.58 626.41 L 1255.15 625.12 L 1255.52 626.34 L 1255.98 618.27 L 1256.63 622.53 L 1257.27 627.85 L 1257.45 623.86 L 1257.84 626.48 L 1258.80 626.42 L 1259.06 623.28 L 1259.69 618.94 L 1259.92 630.93 L 1260.39 628.21 L 1260.89 628.21 L 1261.32 620.96 L 1261.90 626.15 L 1262.56 626.79 L 1263.22 622.72 L 1263.57 622.06 L 1263.90 625.66 L 1264.58 624.59 L 1264.85 619.58 L 1265.23 619.65 L 1265.86 617.59 L 1266.42 627.38 L 1266.84 619.54 L 1267.70 616.16 L 1267.74 613.28 L 1268.20 618.56 L 1269.03 629.24 L 1269.57 630.61 L 1269.75 628.53 L 1270.53 623.96 L 1270.72 624.35 L 1271.22 618.51 L 1271.96 624.41 L 1272.56 625.52 L 1273.09 624.03 L 1273.27 625.18 L 1274.10 615.74 L 1274.13 617.08 L 1274.62 626.82 L 1275.52 623.43 L 1275.79 627.27 L 1276.15 627.14 L 1276.63 627.90 L 1277.42 622.42 L 1277.84 624.94 L 1278.28 624.74 L 1279.06 622.00 L 1279.07 621.88 L 1279.70 620.55 L 1280.53 625.29 L 1280.71 619.17 L 1281.28 624.45 L 1281.94 625.31 L 1282.44 630.87 L 1282.64 626.97 L 1283.20 631.19 L 1283.75 627.92 L 1284.10 634.44 L 1284.83 622.30 L 1285.04 616.03 L 1285.67 622.46 L 1286.47 625.55 L 1286.48 625.56 L 1287.00 634.65 L 1287.72 624.07 L 1288.34 623.19 L 1288.58 626.64 L 1288.99 629.78 L 1289.93 625.49 L 1289.95 625.27 L 1290.85 621.11 L 1291.33 628.46 L 1291.46 631.30 L 1292.30 620.85 L 1292.70 621.41 L 1292.90 629.34 L 1293.76 625.77 L 1294.35 619.77 L 1294.38 623.72 L 1295.10 620.86 L 1295.76 630.43 L 1296.00 624.54 L 1296.40 625.05 L 1297.18 630.59 L 1297.73 631.72 L 1297.86 631.55 L 1298.65 629.30 L 1299.27 627.48 L 1299.48 629.54 L 1300.15 623.56 L 1300.72 626.34 L 1300.93 628.77 L 1301.55 629.90 L 1302.22 623.31 L 1302.42 623.49 L 1303.01 621.52 L 1303.44 629.80 L 1304.26 629.11 L 1304.28 627.38 L 1305.06 629.85 L 1305.29 628.01 L 1305.91 619.15 L 1306.69 625.18 L 1307.05 626.12 L 1307.57 635.50 L 1307.96 633.05 L 1308.70 636.43 L 1308.79 623.55 L 1309.48 628.92 L 1309.77 635.16 L 1310.52 636.00 L 1311.12 623.47 L 1311.48 624.85 L 1311.70 624.06 L 1312.46 625.42 L 1312.96 632.76 L 1313.48 634.28 L 1313.97 620.15 L 1314.60 627.12 L 1314.63 632.36 L 1315.25 623.64 L 1316.00 626.97 L 1316.25 637.45 L 1316.89 632.17 L 1317.47 623.92 L 1317.72 626.60 L 1318.44 637.28 L 1318.69 630.82 L 1319.43 633.10 L 1319.73 627.55 L 1320.34 626.91 L 1320.87 634.77 L 1321.16 635.73 L 1321.81 628.27 L 1322.06 638.66 L 1322.67 630.47 L 1323.51 637.73 L 1323.92 632.21 L 1324.10 626.53 L 1324.68 631.59 L 1325.32 635.47 L 1325.93 638.75 L 1326.14 633.23 L 1326.98 633.88 L 1327.39 633.92 L 1327.51 634.50 L 1328.20 637.91 L 1328.82 637.93 L 1329.45 628.89 L 1329.47 626.99 L 1329.95 634.67 L 1330.72 637.96 L 1331.32 632.51 L 1331.92 636.66 L 1331.92 636.69 L 1332.73 629.15 L 1332.96 630.72 L 1333.87 632.63 L 1334.25 631.81 L 1334.79 637.63 L 1335.12 644.30 L 1335.80 634.55 L 1336.08 619.69 L 1336.73 643.58 L 1337.12 634.05 L 1337.70 634.19 L 1338.20 638.03 L 1338.56 628.83 L 1338.94 626.16 L 1339.65 645.47 L 1340.21 637.68 L 1340.61 626.68 L 1340.89 633.16 L 1341.39 632.85 L 1341.97 638.70 L 1342.55 629.61 L 1342.88 631.22 L 1343.46 633.74 L 1344.17 634.64 L 1344.73 630.40 L 1344.91 628.08 L 1345.44 639.33 L 1346.17 624.43 L 1346.38 625.23 L 1347.07 633.04 L 1347.63 634.17 L 1347.81 636.42 L 1348.67 630.29 L 1348.72 645.23 L 1349.28 637.13 L 1349.77 641.84 L 1350.52 630.72 L 1350.88 644.62 L 1351.58 640.92 L 1351.80 647.83 L 1352.46 637.85 L 1352.85 633.62 L 1353.22 641.04 L 1354.11 638.69 L 1354.44 640.38 L 1355.06 639.69 L 1355.56 633.28 L 1355.88 631.21 L 1356.29 633.28 L 1356.99 636.29 L 1357.39 631.96 L 1357.95 632.86 L 1358.38 631.40 L 1358.63 636.35 L 1359.37 644.65 L 1360.08 630.68 L 1360.09 630.53 L 1360.64 628.52 L 1361.31 635.67 L 1362.05 628.23 L 1362.25 627.11 L 1362.97 629.84 L 1363.53 629.61 L 1363.54 629.79 L 1364.04 646.56 L 1364.96 634.71 L 1365.17 637.19 L 1365.68 629.94 L 1366.42 638.41 L 1366.63 628.55 L 1367.34 638.83 L 1367.65 633.79 L 1368.03 635.75 L 1368.58 638.16 L 1369.30 634.93 L 1369.95 634.46 L 1370.36 624.43 L 1370.76 632.00 L 1371.28 630.65 L 1371.48 635.72 L 1372.19 633.31 L 1372.43 640.47 L 1373.42 634.73 L 1373.45 628.25 L 1374.35 634.32 L 1374.75 638.70 L 1375.08 634.19 L 1375.74 640.95 L 1376.17 623.97 L 1376.53 640.12 L 1376.89 640.01 L 1377.56 628.81 L 1378.18 637.57 L 1378.54 645.71 L 1379.24 629.96 L 1379.62 633.33 L 1380.13 634.06 L 1380.83 634.68 L 1380.85 632.87 L 1381.77 641.26 L 1382.31 632.59 L 1382.34 628.61 L 1382.95 641.44 L 1383.37 636.26 L 1383.97 631.60 L 1384.78 635.60 L 1384.83 627.71 L 1385.42 635.83 L 1385.92 637.73 L 1386.64 632.90 L 1386.85 627.94 L 1387.75 631.14 L 1387.75 631.10 L 1388.29 640.90 L 1389.12 641.18 L 1389.72 631.49 L 1389.75 627.90 L 1390.43 633.21 L 1390.99 623.12 L 1391.20 630.46 L 1392.10 629.77 L 1392.43 629.70 L 1392.90 630.44 L 1393.32 634.55 L 1393.88 626.22 L 1394.60 637.76 L 1394.89 639.21 L 1395.51 639.69 L 1396.06 632.96 L 1396.59 627.55 L 1396.78 622.09 L 1397.17 631.40 L 1397.85 633.58 L 1398.23 631.77 L 1398.84 628.35 L 1399.31 628.12 L 1400.08 628.60 L 1400.10 630.11 L 1400.59 633.88 L 1401.36 633.57 L 1401.73 629.78 L 1402.31 640.07 L 1402.94 643.32 L 1403.32 637.75 L 1403.66 628.25 L 1404.45 631.57 L 1404.64 627.05 L 1405.11 626.29 L 1405.97 630.18 L 1406.50 627.78 L 1406.52 629.09 L 1407.10 630.19 L 1407.96 633.98 L 1408.15 635.79 L 1408.51 636.90 L 1409.42 628.58 L 1409.96 622.36 L 1409.98 623.79 L 1410.90 629.17 L 1411.24 638.00 L 1411.91 636.51 L 1412.32 640.35 L 1412.88 631.57 L 1413.42 638.11 L 1413.88 634.40 L 1414.33 637.15 L 1414.84 637.56 L 1415.24 644.66 L 1415.77 643.85 L 1416.02 628.04 L 1416.64 630.76 L 1417.04 633.86 L 1417.88 639.96 L 1417.91 635.01 L 1418.69 640.18 L 1419.15 640.81 L 1419.86 631.81 L 1419.88 628.12 L 1420.81 641.39 L 1421.33 643.10 L 1421.83 633.96 L 1421.98 626.19 L 1422.41 634.58 L 1423.31 634.61 L 1423.70 624.88 L 1423.81 638.60 L 1424.44 643.75 L 1425.11 632.63 L 1425.68 646.79 L 1425.87 631.81 L 1426.75 640.92 L 1427.08 638.88 L 1427.63 639.85 L 1428.01 630.89 L 1428.58 622.91 L 1429.24 638.72 L 1429.24 638.68 L 1430.21 637.95 L 1430.23 640.22 L 1431.06 626.82 L 1431.44 628.34 L 1432.18 633.48 L 1432.21 637.55 L 1432.87 642.48 L 1433.45 638.77 L 1433.99 644.31 L 1434.37 629.24 L 1434.87 646.05 L 1435.25 656.06 L 1435.99 636.36 L 1436.44 634.57 L 1436.67 638.26 L 1437.22 625.30 L 1437.96 634.91 L 1438.63 637.36 L 1438.66 632.55 L 1439.58 633.52 L 1440.11 637.27 L 1440.14 632.41 L 1441.05 632.08 L 1441.10 640.58 L 1441.81 642.27 L 1442.29 640.01 L 1443.01 627.52 L 1443.57 645.66 L 1443.75 634.89 L 1444.12 640.31 L 1444.96 639.75 L 1445.09 641.30 L 1446.04 635.99 L 1446.04 635.95 L 1447.02 636.58 L 1447.03 636.69 L 1447.57 633.83 L 1448.36 635.38 L 1448.81 628.48 L 1449.00 636.56 L 1449.91 633.46 L 1450.22 631.37 L 1450.74 633.96 L 1451.12 631.25 L 1451.83 646.68 L 1452.20 632.44 L 1452.77 629.51 L 1453.35 627.77 L 1453.58 633.12 L 1454.37 631.47 L 1454.56 630.02 L 1454.97 631.49 L 1455.49 633.48 L 1456.02 630.01 L 1456.57 628.71 L 1456.97 634.41 L 1457.66 622.00 L 1458.02 629.71 L 1458.39 639.19 L 1458.94 627.84 L 1459.56 631.57 L 1460.36 631.75 L 1460.38 630.83 L 1461.10 638.86 L 1461.83 631.14 L 1462.28 629.71 L 1462.69 624.77 L 1463.26 622.30 L 1463.80 630.38 L 1463.82 633.19 L 1464.73 633.49 L 1465.09 634.68 L 1465.73 625.83 L 1466.13 627.55 L 1466.34 628.37 L 1467.07 629.33 L 1467.77 630.82 L 1467.78 630.16 L 1468.65 639.87 L 1469.21 634.11 L 1469.41 627.23 L 1469.97 625.34 L 1470.68 628.72 L 1470.89 637.70 L 1471.44 629.30 L 1471.97 631.81 L 1472.67 635.90 L 1472.86 633.78 L 1473.58 636.75 L 1473.97 638.79 L 1474.42 630.86 L 1474.86 634.07 L 1475.68 643.02 L 1475.72 632.77 L 1476.48 630.38 L 1476.67 646.62 L 1477.33 630.47 L 1477.69 629.19 L 1478.39 647.75 L 1479.14 633.12 L 1479.14 633.07 L 1479.92 634.55 L 1480.15 635.96 L 1480.77 639.46 L 1481.35 639.79 L 1482.06 647.71 L 1482.26 633.36 L 1483.00 637.52 L 1483.49 636.00 L 1483.68 629.51 L 1484.40 648.61 L 1484.94 643.21 L 1485.15 634.97 L 1485.88 638.16 L 1486.40 638.22 L 1486.61 640.04 L 1487.29 639.28 L 1488.03 639.52 L 1488.05 636.57 L 1488.88 629.92 L 1489.29 626.48 L 1489.84 634.14 L 1490.21 635.25 L 1490.75 637.37 L 1491.16 630.00 L 1491.98 634.79 L 1492.36 628.95 L 1492.74 636.22 L 1493.09 626.08 L 1493.84 631.18 L 1494.23 624.98 L 1494.85 637.45 L 1495.08 635.54 L 1495.45 638.61 L 1496.17 631.32 L 1496.74 637.97 L 1496.98 629.34 L 1497.75 638.32 L 1497.98 639.89 L 1498.88 636.36 L 1499.01 635.78 L 1499.84 631.63 L 1500.02 625.11 L 1500.40 630.92 L 1501.23 632.77 L 1501.44 627.30 L 1502.24 627.17 L 1502.82 633.60 L 1502.85 635.25 L 1503.54 638.00 L 1504.25 630.65 L 1504.73 640.20 L 1504.84 641.71 L 1505.79 631.49 L 1506.13 631.77 L 1506.64 633.19 L 1507.04 636.80 L 1507.45 642.68 L 1507.96 635.03 L 1508.56 631.61 L 1508.96 628.84 L 1509.27 632.66 L 1509.77 642.66 L 1510.44 642.21 L 1510.83 634.80 L 1511.37 644.76 L 1511.97 628.21 L 1512.40 627.34 L 1513.16 644.65 L 1513.37 644.56 L 1513.98 649.01 L 1514.46 641.96 L 1515.10 637.73 L 1515.41 637.81 L 1516.19 628.45 L 1516.19 628.36 L 1516.92 645.79 L 1517.59 644.16 L 1517.79 636.07 L 1518.59 638.74 L 1518.92 646.14 L 1519.30 649.51 L 1519.70 649.69 L 1520.63 638.81 L 1521.09 628.60 L 1521.13 635.60 L 1521.97 633.16 L 1522.39 639.00 L 1522.74 639.75 L 1523.56 631.18 L 1523.94 623.71 L 1524.33 641.83 L 1524.85 635.79 L 1525.54 640.78 L 1525.97 643.75 L 1526.36 638.89 L 1527.02 631.00 L 1527.41 636.48 L 1527.80 644.87 L 1528.52 642.78 L 1528.90 633.08 L 1529.13 640.87 L 1529.99 641.52 L 1530.35 643.42 L 1530.61 634.34 L 1531.33 628.35 L 1531.74 627.18 L 1532.12 632.87 L 1532.65 646.13 L 1533.48 634.22 L 1533.50 633.04 L 1534.30 631.26 L 1534.92 637.97 L 1535.11 623.76 L 1535.53 630.55 L 1536.29 634.11 L 1536.64 638.16 L 1537.15 634.54 L 1537.49 633.20 L 1537.92 637.92 L 1538.55 630.68 L 1539.01 631.99 L 1539.53 626.03 L 1540.07 634.22 L 1540.47 626.61 L 1541.11 638.97 L 1541.70 632.11 L 1541.89 640.44 L 1542.86 642.15 L 1543.19 633.83 L 1543.59 634.68 L 1543.95 635.92 L 1544.73 636.56 L 1545.08 626.89 L 1545.83 634.91 L 1545.86 629.97 L 1546.64 636.81 L 1546.87 629.16 L 1547.47 626.27 L 1548.22 629.61 L 1548.54 633.49 L 1549.03 640.02 L 1549.78 644.27 L 1550.16 641.19 L 1550.51 629.65 L 1551.26 641.64 L 1551.29 637.44 L 1552.04 628.22 L 1552.41 633.56 L 1553.24 628.14 L 1553.25 627.38 L 1553.74 652.11 L 1554.52 627.36 L 1555.18 631.95 L 1555.21 634.61 L 1555.71 642.27 L 1556.31 638.92 L 1557.08 635.56 L 1557.30 642.76 L 1558.18 635.75 L 1558.21 628.64 L 1558.67 637.69 L 1559.58 639.90 L 1559.92 642.26 L 1560.27 639.22 L 1560.72 637.61 L 1561.35 637.05 L 1562.06 639.22 L 1562.41 628.74 L 1563.12 649.83 L 1563.59 635.12 L 1564.00 625.81 L 1564.60 632.37 L 1564.63 629.59 L 1565.23 635.02 L 1565.93 639.15 L 1566.47 657.99 L 1566.86 633.32 L 1567.37 634.77 L 1567.60 636.39 L 1568.20 639.89 L 1568.98 640.59 L 1569.37 639.52 L 1569.84 637.56" fill="none" stroke="#0d6efd" stroke-width="1.8" stroke-linejoin="round" stroke-linecap="round" />
<text x="830.00" y="880.00" text-anchor="middle" font-size="13" fill="#212529">Frequency (Hz)</text>
<text transform="translate(24.00,435.00) rotate(-90)" text-anchor="middle" font-size="13" fill="#212529">Magnitude (dBFS)</text>
</svg>
